<svg xmlns="http://www.w3.org/2000/svg" xmlns:xlink="http://www.w3.org/1999/xlink" width="500" height="500" viewBox="0 0 500 500"><defs><clipPath id="a"><rect width="500" height="500" style="fill:none"/></clipPath><linearGradient id="b" x1="252.87" y1="-23.69" x2="244.87" y2="738.31" gradientUnits="userSpaceOnUse"><stop offset="0" stop-color="#202459"/><stop offset="0.03" stop-color="#222963"/><stop offset="0.08" stop-color="#29377f"/><stop offset="0.15" stop-color="#344eab"/><stop offset="0.21" stop-color="#3f65d9"/><stop offset="0.22" stop-color="#4165d8"/><stop offset="0.34" stop-color="#6b66c5"/><stop offset="0.47" stop-color="#8e67b5"/><stop offset="0.6" stop-color="#a967a9"/><stop offset="0.73" stop-color="#bd68a0"/><stop offset="0.86" stop-color="#c8689b"/><stop offset="1" stop-color="#cc6899"/></linearGradient><radialGradient id="c" cx="216.99" cy="-338.6" r="183.77" gradientTransform="matrix(0.71, 0, 0, 0.36, -55.54, 220.25)" gradientUnits="userSpaceOnUse"><stop offset="0" stop-color="#8ef2db"/><stop offset="1" stop-color="#79b7b7" stop-opacity="0"/></radialGradient><radialGradient id="d" cx="464.25" cy="422.41" r="183.77" gradientTransform="matrix(0.71, 0, 0, 0.36, 78.46, 50.48)" xlink:href="#c"/><radialGradient id="e" cx="234.44" cy="146.38" r="1.57" gradientTransform="matrix(0.98, -0.21, 0.21, 0.98, -4.62, 43.71)" gradientUnits="userSpaceOnUse"><stop offset="0" stop-color="#fff"/><stop offset="0.16" stop-color="#d0d0d0"/><stop offset="0.47" stop-color="#787878"/><stop offset="0.72" stop-color="#373737"/><stop offset="0.9" stop-color="#0f0f0f"/><stop offset="1"/></radialGradient><linearGradient id="f" x1="201.8" y1="146.38" x2="233.05" y2="146.38" gradientTransform="matrix(0.98, -0.21, 0.21, 0.98, -4.62, 43.71)" gradientUnits="userSpaceOnUse"><stop offset="0"/><stop offset="0.12" stop-color="#0d0d0d" stop-opacity="0.98"/><stop offset="0.31" stop-color="#323232" stop-opacity="0.92"/><stop offset="0.55" stop-color="#6e6e6e" stop-opacity="0.83"/><stop offset="0.82" stop-color="#c1c1c1" stop-opacity="0.7"/><stop offset="1" stop-color="#fff" stop-opacity="0.6"/></linearGradient><radialGradient id="g" cx="126.51" cy="185.29" r="2.4" xlink:href="#e"/><linearGradient id="h" x1="76.75" y1="185.29" x2="124.4" y2="185.29" xlink:href="#f"/><radialGradient id="i" cx="319.16" cy="226.66" r="2.01" xlink:href="#e"/><linearGradient id="j" x1="277.55" y1="226.66" x2="317.4" y2="226.66" xlink:href="#f"/></defs><title>night</title><g style="isolation:isolate"><g style="clip-path:url(#a)"><rect width="500" height="500" style="fill:url(#b)"/><g style="mix-blend-mode:overlay"><path d="M44.5,84a.9.9,0,0,1-.2,1.1.9.9,0,0,1-1.1-.3.8.8,0,0,1,.3-1A.8.8,0,0,1,44.5,84Z" style="fill:#fff"/><path d="M60.9,53.7a.8.8,0,0,1-.3,1.2.8.8,0,0,1-1.1-.3.8.8,0,0,1,.3-1.2A.8.8,0,0,1,60.9,53.7Z" style="fill:#fff"/><path d="M56.2,104.4a.4.4,0,0,1-.2.7.5.5,0,0,1-.8-.2.7.7,0,0,1,.3-.8A.5.5,0,0,1,56.2,104.4Z" style="fill:#fff"/><path d="M58.6,108.9a.5.5,0,0,1-.2.8.6.6,0,0,1-.7-.2.5.5,0,0,1,.2-.8A.6.6,0,0,1,58.6,108.9Z" style="fill:#fff"/><circle cx="47.9" cy="123.6" r="0.6" style="fill:#fff"/><path d="M121.5,92.7a.5.5,0,0,1-.2.6c-.2.1-.4.1-.6-.2a.4.4,0,0,1,.2-.5A.4.4,0,0,1,121.5,92.7Z" style="fill:#fff"/><path d="M77.1,128.2c.1.2.1.5-.1.6a.5.5,0,0,1-.6-.2.4.4,0,0,1,.2-.5C76.8,127.9,77,128,77.1,128.2Z" style="fill:#fff"/><path d="M71.7,131.6a.4.4,0,1,1-.6-.2C71.3,131.3,71.5,131.4,71.7,131.6Z" style="fill:#fff"/><path d="M104.2,78.1a.6.6,0,0,1-.2.7.6.6,0,0,1-.7-.2.5.5,0,1,1,.9-.5Z" style="fill:#fff"/><path d="M70.7,70.3a.7.7,0,0,1-.2.9.6.6,0,0,1-.9-.2c-.2-.4-.1-.8.2-.9A.7.7,0,0,1,70.7,70.3Z" style="fill:#fff"/><path d="M82.8,82.8c.1.3.1.6-.2.7a.4.4,0,0,1-.7-.2.7.7,0,0,1,.2-.7A.6.6,0,0,1,82.8,82.8Z" style="fill:#fff"/><path d="M115.4,96.5a.5.5,0,0,1-.2.6.4.4,0,0,1-.5-.2c-.1-.2-.1-.4.1-.5S115.3,96.3,115.4,96.5Z" style="fill:#fff"/><path d="M107.4,125.1c.1.2.1.4-.1.5a.4.4,0,0,1-.5-.1.4.4,0,0,1,.2-.5C107.1,124.9,107.3,125,107.4,125.1Z" style="fill:#fff"/><path d="M118.4,158.6a.4.4,0,0,1-.2.5.4.4,0,0,1-.5-.1c-.1-.2-.1-.5.1-.6A.5.5,0,0,1,118.4,158.6Z" style="fill:#fff"/><path d="M147,128.5a.5.5,0,0,1-.9.5.6.6,0,0,1,.2-.7A.7.7,0,0,1,147,128.5Z" style="fill:#fff"/><path d="M107.4,153.5c.1.1,0,.3-.1.4s-.4.1-.5-.1-.1-.4.1-.5A.4.4,0,0,1,107.4,153.5Z" style="fill:#fff"/><path d="M99.6,162.4c.1.2.1.4-.1.5a.4.4,0,1,1-.4-.6C99.3,162.2,99.5,162.2,99.6,162.4Z" style="fill:#fff"/><path d="M70.8,161.1a.5.5,0,0,1-.2.6c-.3.1-.5.1-.7-.2a.5.5,0,0,1,.2-.6A.7.7,0,0,1,70.8,161.1Z" style="fill:#fff"/><path d="M82.6,176.3a.6.6,0,0,1-.2.7.5.5,0,0,1-.6-.2.5.5,0,0,1,.1-.7A.6.6,0,0,1,82.6,176.3Z" style="fill:#fff"/><path d="M115,186.8a.5.5,0,0,1-.2.8.6.6,0,0,1-.7-.3.7.7,0,0,1,.2-.7A.6.6,0,0,1,115,186.8Z" style="fill:#fff"/><path d="M125.8,187.6a.6.6,0,0,1-1,.6.7.7,0,0,1,.2-.8A.5.5,0,0,1,125.8,187.6Z" style="fill:#fff"/><path d="M178.2,161.5a.8.8,0,0,1-.3,1.1.8.8,0,0,1-1-.3.7.7,0,0,1,.3-1.1A.7.7,0,0,1,178.2,161.5Z" style="fill:#fff"/><path d="M178.9,137.3a.8.8,0,0,1-.3,1,.8.8,0,0,1-1-.3.7.7,0,0,1,.3-1A.7.7,0,0,1,178.9,137.3Z" style="fill:#fff"/><path d="M163.1,108.4a.7.7,0,0,1-.3.8.5.5,0,0,1-.8-.2.8.8,0,0,1,.2-.9A.8.8,0,0,1,163.1,108.4Z" style="fill:#fff"/><path d="M153.2,84.1a.8.8,0,0,1-.3.9.7.7,0,0,1-.8-.3.5.5,0,0,1,.2-.8A.7.7,0,0,1,153.2,84.1Z" style="fill:#fff"/><path d="M143.1,62.7a.8.8,0,0,1-.3,1,.7.7,0,0,1-.9-.3.6.6,0,0,1,.2-.9A.8.8,0,0,1,143.1,62.7Z" style="fill:#fff"/><path d="M129.9,46.4a.8.8,0,1,1-1.1-.3A.8.8,0,0,1,129.9,46.4Z" style="fill:#fff"/><path d="M105.4,48.3a.7.7,0,0,1-.3,1,.8.8,0,0,1-1-.3.8.8,0,0,1,.3-1A.7.7,0,0,1,105.4,48.3Z" style="fill:#fff"/><path d="M97.5,46.2a.7.7,0,0,1-.2,1,.8.8,0,0,1-1.1-.3.7.7,0,0,1,.3-1A.7.7,0,0,1,97.5,46.2Z" style="fill:#fff"/><circle cx="102.3" cy="67.9" r="0.6" style="fill:#fff"/><path d="M102.5,129a.3.3,0,0,1-.2.4.2.2,0,0,1-.4-.1c-.1-.2-.1-.4.1-.5S102.4,128.8,102.5,129Z" style="fill:#fff"/><path d="M87.8,141.3c.1.2.1.4-.1.5a.4.4,0,0,1-.4-.6C87.5,141.1,87.7,141.1,87.8,141.3Z" style="fill:#fff"/><path d="M108.9,163a.5.5,0,0,1-.1.6.4.4,0,0,1-.5-.2c-.1-.2-.1-.4.1-.5A.4.4,0,0,1,108.9,163Z" style="fill:#fff"/><path d="M112.8,169.1a.4.4,0,1,1-.8.4c-.1-.2,0-.4.2-.6S112.6,168.9,112.8,169.1Z" style="fill:#fff"/><path d="M108.8,131.6a.4.4,0,1,1-.5-.1A.4.4,0,0,1,108.8,131.6Z" style="fill:#fff"/><path d="M118.6,130.9a.4.4,0,0,1-.1.5.4.4,0,0,1-.5-.2.3.3,0,0,1,.1-.5C118.3,130.7,118.5,130.7,118.6,130.9Z" style="fill:#fff"/><path d="M135.1,142.5a.4.4,0,0,1-.2.6.5.5,0,0,1-.6-.1.5.5,0,0,1,.2-.6C134.7,142.3,135,142.3,135.1,142.5Z" style="fill:#fff"/><path d="M147.3,143.6a.6.6,0,0,1-.2.7.5.5,0,1,1-.5-.9A.6.6,0,0,1,147.3,143.6Z" style="fill:#fff"/><path d="M97,115.5a.4.4,0,0,1-.2.5c-.2.1-.4.1-.5-.1a.4.4,0,0,1,.2-.5A.3.3,0,0,1,97,115.5Z" style="fill:#fff"/><path d="M88.1,104.7c.1.2.1.5-.1.6a.4.4,0,1,1-.4-.8A.4.4,0,0,1,88.1,104.7Z" style="fill:#fff"/><path d="M81.9,104.7a.4.4,0,1,1-.6-.2A.5.5,0,0,1,81.9,104.7Z" style="fill:#fff"/><path d="M129.5,101.1a.4.4,0,0,1-.2.6c-.2.1-.4.1-.5-.2s-.1-.4.1-.5S129.4,100.9,129.5,101.1Z" style="fill:#fff"/><path d="M154.9,124.3a.4.4,0,0,1-.2.7.6.6,0,0,1-.7-.2.6.6,0,0,1,.2-.7A.4.4,0,0,1,154.9,124.3Z" style="fill:#fff"/><path d="M166.3,145.1a.7.7,0,0,1-.2.9.7.7,0,0,1-.9-.3.7.7,0,0,1,.3-.8A.5.5,0,0,1,166.3,145.1Z" style="fill:#fff"/></g><g style="mix-blend-mode:overlay"><path d="M326.2,383.1a.7.7,0,0,1-.3,1,.7.7,0,0,1-1-.3.8.8,0,0,1,.3-1A.7.7,0,0,1,326.2,383.1Z" style="fill:#fff"/><path d="M342.6,352.8a.7.7,0,0,1-.3,1.1.9.9,0,0,1-1.2-.3,1,1,0,0,1,.4-1.2A.8.8,0,0,1,342.6,352.8Z" style="fill:#fff"/><path d="M337.9,403.4a.5.5,0,0,1-.2.8.8.8,0,0,1-.8-.2.7.7,0,0,1,.2-.8A.5.5,0,0,1,337.9,403.4Z" style="fill:#fff"/><circle cx="339.8" cy="408.2" r="0.5" style="fill:#fff"/><path d="M330.1,422.3a.6.6,0,0,1-.3.8.4.4,0,0,1-.7-.2.5.5,0,0,1,.2-.8A.8.8,0,0,1,330.1,422.3Z" style="fill:#fff"/><path d="M403.2,391.8c.1.2,0,.4-.2.6a.4.4,0,1,1,.2-.6Z" style="fill:#fff"/><path d="M358.8,427.3a.4.4,0,0,1-.2.5c-.2.1-.4.1-.5-.1a.6.6,0,0,1,.1-.6A.5.5,0,0,1,358.8,427.3Z" style="fill:#fff"/><path d="M353.3,430.6a.4.4,0,0,1-.1.6c-.2.1-.5.1-.6-.1a.5.5,0,0,1,.2-.6C353,430.4,353.2,430.4,353.3,430.6Z" style="fill:#fff"/><path d="M385.8,377.2a.4.4,0,0,1-.1.6c-.3.1-.6.1-.7-.2a.5.5,0,0,1,.2-.6A.4.4,0,0,1,385.8,377.2Z" style="fill:#fff"/><path d="M352.4,369.4a.7.7,0,0,1-.2.9c-.4.1-.8,0-.9-.3a.7.7,0,0,1,.2-.9A.7.7,0,0,1,352.4,369.4Z" style="fill:#fff"/><path d="M364.5,381.9a.7.7,0,0,1-.2.7.6.6,0,0,1-.7-.2c-.1-.3-.1-.6.2-.7A.4.4,0,0,1,364.5,381.9Z" style="fill:#fff"/><path d="M397.1,395.6a.4.4,0,0,1-.2.5c-.2.1-.4.1-.5-.1s-.1-.5.1-.6A.5.5,0,0,1,397.1,395.6Z" style="fill:#fff"/><path d="M389.1,424.2c.1.1.1.4-.1.4s-.4.1-.5-.1a.4.4,0,0,1,.2-.5C388.8,423.9,389,424,389.1,424.2Z" style="fill:#fff"/><path d="M400.1,457.6a.5.5,0,0,1-.2.6.4.4,0,0,1-.5-.2c-.1-.2-.1-.4.1-.5S400,457.4,400.1,457.6Z" style="fill:#fff"/><path d="M428.6,427.6a.4.4,0,0,1-.1.6.6.6,0,0,1-.7-.2.5.5,0,0,1,.2-.6C428.2,427.2,428.5,427.3,428.6,427.6Z" style="fill:#fff"/><path d="M389.1,452.5a.4.4,0,0,1-.2.5c-.1.1-.3,0-.4-.2a.2.2,0,0,1,.1-.4C388.8,452.3,389,452.3,389.1,452.5Z" style="fill:#fff"/><path d="M381.3,461.5a.3.3,0,0,1-.1.5.4.4,0,0,1-.5-.2.4.4,0,0,1,.1-.5A.4.4,0,0,1,381.3,461.5Z" style="fill:#fff"/><path d="M352.4,460.1a.5.5,0,0,1-.1.7.6.6,0,0,1-.7-.2.7.7,0,0,1,.2-.7A.5.5,0,0,1,352.4,460.1Z" style="fill:#fff"/><path d="M364.3,475.4a.5.5,0,0,1-.2.6c-.2.2-.5.1-.7-.2a.5.5,0,0,1,.2-.6C363.9,475.1,364.2,475.1,364.3,475.4Z" style="fill:#fff"/><path d="M396.7,485.9a.4.4,0,0,1-.2.7.6.6,0,0,1-.7-.2c-.1-.3-.1-.6.2-.7A.4.4,0,0,1,396.7,485.9Z" style="fill:#fff"/><path d="M407.5,486.7a.4.4,0,0,1-.2.7.5.5,0,0,1-.8-.2.5.5,0,0,1,.2-.8A.7.7,0,0,1,407.5,486.7Z" style="fill:#fff"/><path d="M459.9,460.6a.7.7,0,0,1-.3,1,.8.8,0,0,1-1.1-.3.9.9,0,0,1,.3-1.1A.8.8,0,0,1,459.9,460.6Z" style="fill:#fff"/><path d="M460.6,436.3a.8.8,0,0,1-.3,1,.7.7,0,0,1-1-.3.7.7,0,0,1,.3-1A.8.8,0,0,1,460.6,436.3Z" style="fill:#fff"/><path d="M444.8,407.4a.6.6,0,0,1-.3.8.5.5,0,0,1-.8-.2.5.5,0,0,1,.2-.8A.7.7,0,0,1,444.8,407.4Z" style="fill:#fff"/><path d="M434.9,383.2a.7.7,0,0,1-.3.8.5.5,0,0,1-.8-.2.7.7,0,0,1,.2-.9A.8.8,0,0,1,434.9,383.2Z" style="fill:#fff"/><path d="M424.8,361.8a.7.7,0,0,1-.3.9.6.6,0,0,1-.9-.2.8.8,0,0,1,.2-1A.7.7,0,0,1,424.8,361.8Z" style="fill:#fff"/><path d="M411.6,345.5a.7.7,0,0,1-.3,1,.7.7,0,0,1-1.1-.3.7.7,0,0,1,.3-1A.7.7,0,0,1,411.6,345.5Z" style="fill:#fff"/><path d="M387.1,347.3a.7.7,0,0,1-.3,1,.7.7,0,0,1-1-.3.8.8,0,0,1,.3-1A.8.8,0,0,1,387.1,347.3Z" style="fill:#fff"/><path d="M379.2,345.2a.8.8,0,0,1-.3,1.1.7.7,0,0,1-1-.3.7.7,0,0,1,.3-1A.7.7,0,0,1,379.2,345.2Z" style="fill:#fff"/><path d="M384.5,366.7a.6.6,0,1,1-.8-.2A.8.8,0,0,1,384.5,366.7Z" style="fill:#fff"/><path d="M384.2,428a.4.4,0,0,1-.2.5c-.1.1-.3,0-.4-.1s-.1-.4.1-.5A.4.4,0,0,1,384.2,428Z" style="fill:#fff"/><path d="M369.5,440.4c.1.1,0,.4-.1.4s-.4.1-.5-.1-.1-.4.1-.5A.4.4,0,0,1,369.5,440.4Z" style="fill:#fff"/><path d="M390.6,462.1c.1.2.1.4-.1.5a.4.4,0,0,1-.5-.2.3.3,0,0,1,.1-.5A.4.4,0,0,1,390.6,462.1Z" style="fill:#fff"/><path d="M394.4,468.2c.2.2.1.4-.1.5s-.5.1-.6-.1a.5.5,0,0,1,.2-.6A.4.4,0,0,1,394.4,468.2Z" style="fill:#fff"/><path d="M390.5,430.7c.1.1,0,.3-.2.4a.2.2,0,0,1-.4-.1c-.1-.2-.1-.4.1-.5S390.4,430.5,390.5,430.7Z" style="fill:#fff"/><path d="M400.3,429.9a.4.4,0,0,1-.1.5c-.2.1-.4.1-.5-.1s-.1-.4.1-.5A.4.4,0,0,1,400.3,429.9Z" style="fill:#fff"/><path d="M416.8,441.6a.4.4,0,1,1-.6-.2A.5.5,0,0,1,416.8,441.6Z" style="fill:#fff"/><path d="M429,442.7a.5.5,0,0,1-.2.6c-.2.2-.5.1-.7-.2a.5.5,0,0,1,.2-.6C428.6,442.3,428.8,442.4,429,442.7Z" style="fill:#fff"/><path d="M378.7,414.6c.1.1,0,.4-.2.5a.4.4,0,0,1-.5-.2c-.1-.1,0-.4.1-.5A.5.5,0,0,1,378.7,414.6Z" style="fill:#fff"/><path d="M369.8,403.7c.1.2.1.5-.1.6s-.5.1-.6-.2-.1-.4.1-.5S369.7,403.5,369.8,403.7Z" style="fill:#fff"/><path d="M363.6,403.7a.5.5,0,0,1-.2.6c-.2.1-.5.1-.6-.1a.4.4,0,0,1,.2-.6C363.2,403.4,363.4,403.5,363.6,403.7Z" style="fill:#fff"/><path d="M411.2,400.2c.1.2,0,.4-.2.6a.4.4,0,0,1-.5-.2.4.4,0,0,1,.1-.6A.5.5,0,0,1,411.2,400.2Z" style="fill:#fff"/><path d="M436.6,423.3a.4.4,0,0,1-.2.7.4.4,0,0,1-.7-.2.5.5,0,0,1,.2-.7A.6.6,0,0,1,436.6,423.3Z" style="fill:#fff"/><path d="M448,444.2a.5.5,0,0,1-.2.8.7.7,0,0,1-.9-.2.7.7,0,0,1,.3-.9A.7.7,0,0,1,448,444.2Z" style="fill:#fff"/></g><g style="mix-blend-mode:overlay"><path d="M334,96a.8.8,0,0,1-.3,1,.7.7,0,0,1-1-.3A.7.7,0,0,1,334,96Z" style="fill:#fff"/><path d="M350.4,65.7a.8.8,0,0,1-.4,1.1.7.7,0,0,1-1.1-.3.8.8,0,0,1,.3-1.1A.9.9,0,0,1,350.4,65.7Z" style="fill:#fff"/><path d="M345.7,116.3a.7.7,0,0,1-.3.8.4.4,0,0,1-.7-.2.6.6,0,1,1,1-.6Z" style="fill:#fff"/><path d="M348.1,120.9a.5.5,0,0,1-.3.7c-.2.2-.5.1-.7-.2a.6.6,0,0,1,.2-.7A.5.5,0,0,1,348.1,120.9Z" style="fill:#fff"/><path d="M337.8,135.3a.6.6,0,0,1-.2.8.6.6,0,0,1-.8-.3.5.5,0,0,1,.2-.8A.6.6,0,0,1,337.8,135.3Z" style="fill:#fff"/><path d="M410.9,104.7c.1.2.1.5-.1.6a.5.5,0,0,1-.6-.2c-.1-.2-.1-.5.1-.6A.5.5,0,0,1,410.9,104.7Z" style="fill:#fff"/><path d="M366.5,140.2c.2.2.1.4-.1.5s-.5.1-.6-.1a.5.5,0,0,1,.2-.6A.4.4,0,0,1,366.5,140.2Z" style="fill:#fff"/><path d="M361.1,143.6a.4.4,0,0,1-.2.5c-.2.2-.4.1-.6-.1a.5.5,0,0,1,.2-.6A.4.4,0,0,1,361.1,143.6Z" style="fill:#fff"/><path d="M393.6,90.1a.5.5,0,0,1-.2.6c-.2.2-.5.1-.7-.2a.5.5,0,0,1,.2-.6A.6.6,0,0,1,393.6,90.1Z" style="fill:#fff"/><path d="M360.1,82.3a.7.7,0,0,1-.2.9.8.8,0,0,1-.9-.3.6.6,0,0,1,.3-.9A.6.6,0,0,1,360.1,82.3Z" style="fill:#fff"/><path d="M372.2,94.8a.4.4,0,0,1-.2.7.5.5,0,0,1-.7-.2.6.6,0,0,1,.2-.7C371.8,94.5,372.1,94.5,372.2,94.8Z" style="fill:#fff"/><path d="M404.8,108.5a.5.5,0,0,1-.1.6.5.5,0,0,1-.6-.2c-.1-.2,0-.4.2-.6A.4.4,0,0,1,404.8,108.5Z" style="fill:#fff"/><path d="M396.9,137.1a.4.4,0,0,1-.2.5c-.1.1-.3,0-.4-.2s-.1-.4.1-.4S396.8,136.9,396.9,137.1Z" style="fill:#fff"/><path d="M407.8,170.5a.5.5,0,0,1-.2.6c-.1.1-.4,0-.5-.2a.4.4,0,0,1,.2-.5A.4.4,0,0,1,407.8,170.5Z" style="fill:#fff"/><path d="M436.4,140.5a.5.5,0,0,1-.2.6.4.4,0,0,1-.6-.2.4.4,0,0,1,.1-.6C436,140.2,436.3,140.2,436.4,140.5Z" style="fill:#fff"/><path d="M396.8,165.4a.4.4,0,1,1-.5-.1A.4.4,0,0,1,396.8,165.4Z" style="fill:#fff"/><path d="M389.1,174.4a.4.4,0,0,1-.2.5c-.1.1-.4,0-.5-.2s0-.4.2-.5A.4.4,0,0,1,389.1,174.4Z" style="fill:#fff"/><path d="M360.2,173a.6.6,0,0,1-.2.7.5.5,0,0,1-.6-.2.4.4,0,0,1,.1-.6A.5.5,0,0,1,360.2,173Z" style="fill:#fff"/><path d="M372,188.3c.2.2.1.5-.2.6a.4.4,0,0,1-.6-.1c-.1-.3-.1-.6.2-.7A.5.5,0,0,1,372,188.3Z" style="fill:#fff"/><path d="M404.5,198.8a.6.6,0,0,1-.2.7.5.5,0,0,1-.8-.2.6.6,0,0,1,.2-.7A.5.5,0,0,1,404.5,198.8Z" style="fill:#fff"/><path d="M415.2,199.6a.5.5,0,0,1-.2.8.7.7,0,0,1-.8-.3.5.5,0,0,1,.3-.7A.4.4,0,0,1,415.2,199.6Z" style="fill:#fff"/><path d="M467.7,173.5a.8.8,0,0,1-1.4.7.7.7,0,0,1,.3-1A.8.8,0,0,1,467.7,173.5Z" style="fill:#fff"/><path d="M468.3,149.2a.7.7,0,0,1-.3,1,.7.7,0,0,1-1-.3.7.7,0,0,1,.3-.9A.8.8,0,0,1,468.3,149.2Z" style="fill:#fff"/><path d="M452.5,120.3a.7.7,0,0,1-.2.9.8.8,0,0,1-.9-.3.7.7,0,0,1,.3-.8A.5.5,0,0,1,452.5,120.3Z" style="fill:#fff"/><path d="M442.6,96.1a.5.5,0,0,1-.2.8.7.7,0,0,1-.9-.2.8.8,0,0,1,.3-.9A.7.7,0,0,1,442.6,96.1Z" style="fill:#fff"/><path d="M432.5,74.7a.6.6,0,0,1-.3.9.7.7,0,0,1-.9-.2.7.7,0,1,1,1.2-.7Z" style="fill:#fff"/><path d="M419.3,58.4a.8.8,0,0,1-.3,1.1.8.8,0,0,1-.8-1.4A.8.8,0,0,1,419.3,58.4Z" style="fill:#fff"/><path d="M394.8,60.2a.8.8,0,0,1-.2,1,.7.7,0,0,1-1-.3.7.7,0,1,1,1.2-.7Z" style="fill:#fff"/><path d="M387,58.2a.8.8,0,0,1-1.4.7.8.8,0,0,1,.3-1A.8.8,0,0,1,387,58.2Z" style="fill:#fff"/><path d="M392.2,79.6a.5.5,0,0,1-.2.8.6.6,0,0,1-.7-.2.5.5,0,0,1,.2-.8A.6.6,0,0,1,392.2,79.6Z" style="fill:#fff"/><path d="M391.9,140.9a.4.4,0,1,1-.5-.1A.4.4,0,0,1,391.9,140.9Z" style="fill:#fff"/><path d="M377.2,153.3a.3.3,0,0,1-.1.5.4.4,0,0,1-.5-.2c-.1-.1,0-.4.2-.5A.3.3,0,0,1,377.2,153.3Z" style="fill:#fff"/><path d="M398.4,175a.4.4,0,0,1-.2.5.4.4,0,0,1-.5-.1.5.5,0,0,1,.2-.6C398,174.7,398.3,174.8,398.4,175Z" style="fill:#fff"/><path d="M402.2,181.1a.4.4,0,0,1-.2.5c-.2.2-.4.1-.5-.1a.4.4,0,0,1,.1-.6A.5.5,0,0,1,402.2,181.1Z" style="fill:#fff"/><path d="M398.2,143.6a.4.4,0,0,1-.1.5c-.2,0-.4,0-.5-.2a.3.3,0,0,1,.2-.4A.2.2,0,0,1,398.2,143.6Z" style="fill:#fff"/><path d="M408,142.8c.1.2.1.4-.1.5s-.4.1-.5-.1a.4.4,0,1,1,.6-.4Z" style="fill:#fff"/><path d="M424.5,154.5a.5.5,0,0,1-.2.6.4.4,0,0,1-.5-.2.5.5,0,0,1,.1-.6A.5.5,0,0,1,424.5,154.5Z" style="fill:#fff"/><path d="M436.7,155.6a.4.4,0,0,1-.2.6.4.4,0,0,1-.6-.1.4.4,0,0,1,.2-.7A.4.4,0,0,1,436.7,155.6Z" style="fill:#fff"/><path d="M386.4,127.5a.4.4,0,0,1-.2.5c-.1.1-.4,0-.5-.2s0-.4.2-.5A.4.4,0,0,1,386.4,127.5Z" style="fill:#fff"/><path d="M377.6,116.7a.4.4,0,0,1-.2.5c-.2.1-.5.1-.6-.1a.5.5,0,0,1,.2-.6C377.2,116.4,377.4,116.5,377.6,116.7Z" style="fill:#fff"/><path d="M371.3,116.6a.4.4,0,0,1-.2.6c-.2.2-.4.1-.6-.1a.5.5,0,0,1,.2-.6C370.9,116.4,371.2,116.4,371.3,116.6Z" style="fill:#fff"/><path d="M418.9,113.1a.4.4,0,0,1-.1.6.4.4,0,0,1-.4-.8A.4.4,0,0,1,418.9,113.1Z" style="fill:#fff"/><path d="M444.4,136.2a.7.7,0,0,1-.3.8.7.7,0,0,1-.7-.2.6.6,0,0,1,1-.6Z" style="fill:#fff"/><path d="M455.8,157.1a.8.8,0,0,1-.3.9.6.6,0,0,1-.8-.3.5.5,0,0,1,.2-.8A.7.7,0,0,1,455.8,157.1Z" style="fill:#fff"/></g><g style="mix-blend-mode:overlay"><path d="M56.8,369.5a.8.8,0,1,1-1.1-.3A.9.9,0,0,1,56.8,369.5Z" style="fill:#fff"/><path d="M73.2,339.2a1,1,0,0,1-.4,1.2.8.8,0,0,1-1.1-.4.7.7,0,0,1,.3-1.1A1,1,0,0,1,73.2,339.2Z" style="fill:#fff"/><path d="M68.4,389.9a.4.4,0,0,1-.2.7.5.5,0,0,1-.8-.2.7.7,0,0,1,.3-.8A.5.5,0,0,1,68.4,389.9Z" style="fill:#fff"/><circle cx="70.4" cy="394.7" r="0.5" style="fill:#fff"/><path d="M60.6,408.8a.5.5,0,0,1-.2.8.7.7,0,0,1-.8-.2.5.5,0,0,1,.2-.8A.5.5,0,0,1,60.6,408.8Z" style="fill:#fff"/><path d="M133.7,378.2a.5.5,0,0,1-.2.6.4.4,0,0,1-.5-.2c-.2-.2-.1-.4.1-.6A.5.5,0,0,1,133.7,378.2Z" style="fill:#fff"/><path d="M89.3,413.7a.5.5,0,0,1-.1.6.5.5,0,0,1-.6-.2c-.1-.2,0-.4.2-.6A.4.4,0,0,1,89.3,413.7Z" style="fill:#fff"/><path d="M83.9,417.1a.4.4,0,1,1-.6-.2A.5.5,0,0,1,83.9,417.1Z" style="fill:#fff"/><path d="M116.4,363.6a.7.7,0,0,1-.2.7.5.5,0,1,1-.5-.9A.7.7,0,0,1,116.4,363.6Z" style="fill:#fff"/><path d="M82.9,355.8a.7.7,0,0,1-.2.9.6.6,0,0,1-.9-.3.5.5,0,0,1,.2-.8A.6.6,0,0,1,82.9,355.8Z" style="fill:#fff"/><path d="M95,368.3a.4.4,0,0,1-.2.7c-.2.2-.5.1-.7-.2a.7.7,0,0,1,.2-.7A.6.6,0,0,1,95,368.3Z" style="fill:#fff"/><path d="M127.6,382a.5.5,0,0,1-.2.6.4.4,0,0,1-.3-.7A.3.3,0,0,1,127.6,382Z" style="fill:#fff"/><path d="M119.7,410.6c0,.2,0,.4-.2.5a.4.4,0,0,1-.5-.1.4.4,0,0,1,.2-.5A.3.3,0,0,1,119.7,410.6Z" style="fill:#fff"/><path d="M130.6,444.1a.4.4,0,1,1-.7.3c-.1-.1,0-.4.1-.5A.5.5,0,0,1,130.6,444.1Z" style="fill:#fff"/><path d="M159.2,414a.5.5,0,0,1-.2.6.5.5,0,0,1-.7-.1.6.6,0,0,1,.2-.7A.6.6,0,0,1,159.2,414Z" style="fill:#fff"/><path d="M119.6,439c.1.1,0,.3-.1.4s-.4.1-.5-.1a.4.4,0,0,1,.1-.5A.4.4,0,0,1,119.6,439Z" style="fill:#fff"/><path d="M111.8,447.9c.1.2.1.4-.1.5a.4.4,0,0,1-.5-.1.4.4,0,0,1,.2-.5C111.5,447.7,111.8,447.7,111.8,447.9Z" style="fill:#fff"/><path d="M83,446.6a.5.5,0,0,1-.2.6.5.5,0,0,1-.7-.2.5.5,0,0,1,.2-.6A.6.6,0,0,1,83,446.6Z" style="fill:#fff"/><path d="M94.8,461.8a.6.6,0,0,1-.2.7.5.5,0,0,1-.6-.2.5.5,0,0,1,.1-.7A.6.6,0,0,1,94.8,461.8Z" style="fill:#fff"/><path d="M127.3,472.3a.5.5,0,0,1-.3.7c-.2.2-.5.1-.7-.2a.6.6,0,0,1,.2-.7A.8.8,0,0,1,127.3,472.3Z" style="fill:#fff"/><path d="M138,473.1a.5.5,0,0,1-.2.8.8.8,0,0,1-.8-.2.7.7,0,0,1,.2-.8A.5.5,0,0,1,138,473.1Z" style="fill:#fff"/><path d="M190.4,447a.8.8,0,1,1-1-.3A.7.7,0,0,1,190.4,447Z" style="fill:#fff"/><path d="M191.1,422.8a.7.7,0,0,1-.3,1,.8.8,0,0,1-1-.3.7.7,0,0,1,.3-1A.7.7,0,0,1,191.1,422.8Z" style="fill:#fff"/><path d="M175.3,393.9a.7.7,0,0,1-.3.8.8.8,0,0,1-.8-.2.8.8,0,0,1,.3-.9A.7.7,0,0,1,175.3,393.9Z" style="fill:#fff"/><path d="M165.4,369.6a.7.7,0,0,1-.3.9.7.7,0,0,1-.8-.3.5.5,0,0,1,.2-.8A.7.7,0,0,1,165.4,369.6Z" style="fill:#fff"/><path d="M155.3,348.2a.7.7,0,1,1-1.2.7.6.6,0,0,1,.2-.9A.8.8,0,0,1,155.3,348.2Z" style="fill:#fff"/><path d="M142.1,331.9a.8.8,0,1,1-1.1-.3A.8.8,0,0,1,142.1,331.9Z" style="fill:#fff"/><path d="M117.6,333.8a.7.7,0,0,1-.3,1,.8.8,0,0,1-1-.3.8.8,0,0,1,.3-1A.7.7,0,0,1,117.6,333.8Z" style="fill:#fff"/><path d="M109.8,331.7a.8.8,0,0,1-.3,1,.8.8,0,0,1-1.1-.3.7.7,0,0,1,.3-1A.8.8,0,0,1,109.8,331.7Z" style="fill:#fff"/><path d="M115,353.2c.1.2.1.6-.2.7a.5.5,0,0,1-.8-.2.8.8,0,0,1,.2-.8A.6.6,0,0,1,115,353.2Z" style="fill:#fff"/><path d="M114.7,414.5c.1.1,0,.3-.1.4s-.4.1-.5-.1a.4.4,0,0,1,.1-.5A.4.4,0,0,1,114.7,414.5Z" style="fill:#fff"/><path d="M100,426.8c.1.2.1.4-.1.5a.4.4,0,1,1-.4-.6C99.7,426.6,99.9,426.6,100,426.8Z" style="fill:#fff"/><path d="M121.2,448.5a.4.4,0,0,1-.2.5c-.2.1-.4.1-.5-.1a.4.4,0,0,1,.1-.5C120.8,448.3,121.1,448.3,121.2,448.5Z" style="fill:#fff"/><path d="M125,454.6a.4.4,0,1,1-.8.4c-.1-.2,0-.4.2-.6A.5.5,0,0,1,125,454.6Z" style="fill:#fff"/><path d="M121,417.1a.4.4,0,0,1-.1.5.4.4,0,0,1-.5-.2c-.1-.1,0-.3.1-.4A.4.4,0,0,1,121,417.1Z" style="fill:#fff"/><path d="M130.8,416.4a.4.4,0,0,1-.1.5.4.4,0,0,1-.5-.2c-.1-.1,0-.4.1-.5A.4.4,0,0,1,130.8,416.4Z" style="fill:#fff"/><path d="M147.3,428a.5.5,0,0,1-.2.6c-.2.1-.4.1-.5-.2s-.1-.4.1-.5S147.2,427.8,147.3,428Z" style="fill:#fff"/><path d="M159.5,429.1a.5.5,0,1,1-.7-.2A.6.6,0,0,1,159.5,429.1Z" style="fill:#fff"/><path d="M109.2,401a.4.4,0,0,1-.2.5c-.2.1-.4.1-.5-.1a.4.4,0,0,1,.2-.5A.3.3,0,0,1,109.2,401Z" style="fill:#fff"/><path d="M100.3,390.2a.5.5,0,0,1-.1.6.4.4,0,0,1-.4-.8A.4.4,0,0,1,100.3,390.2Z" style="fill:#fff"/><path d="M94.1,390.2c.1.2,0,.4-.2.6a.4.4,0,1,1,.2-.6Z" style="fill:#fff"/><path d="M141.7,386.6c.1.2.1.5-.1.6a.5.5,0,0,1-.6-.2c-.1-.2-.1-.4.1-.5A.4.4,0,0,1,141.7,386.6Z" style="fill:#fff"/><path d="M167.1,409.8c.2.2.1.5-.2.7a.7.7,0,0,1-.7-.2.6.6,0,0,1,.2-.7A.4.4,0,0,1,167.1,409.8Z" style="fill:#fff"/><path d="M178.5,430.6a.7.7,0,0,1-.2.9.8.8,0,0,1-.9-.3.7.7,0,0,1,.3-.8A.5.5,0,0,1,178.5,430.6Z" style="fill:#fff"/></g><g style="mix-blend-mode:overlay"><path d="M143.4,84a.8.8,0,1,1-1.3.8.7.7,0,0,1,.3-1A.8.8,0,0,1,143.4,84Z" style="fill:#fff"/><path d="M159.8,53.7a.9.9,0,1,1-1.5.9.9.9,0,0,1,1.5-.9Z" style="fill:#fff"/><path d="M155.1,104.4a.4.4,0,0,1-.2.7.6.6,0,0,1-.6-1A.7.7,0,0,1,155.1,104.4Z" style="fill:#fff"/><circle cx="157" cy="109.2" r="0.5" style="fill:#fff"/><path d="M147.2,123.3a.6.6,0,0,1-1,.6.6.6,0,0,1,.3-.8A.4.4,0,0,1,147.2,123.3Z" style="fill:#fff"/><path d="M220.4,92.7a.5.5,0,0,1-.2.6.4.4,0,0,1-.6-.2.4.4,0,0,1,.2-.5C220,92.4,220.2,92.5,220.4,92.7Z" style="fill:#fff"/><path d="M176,128.2a.5.5,0,0,1-.2.6.4.4,0,0,1-.5-.2c-.1-.2-.1-.4.1-.5A.4.4,0,0,1,176,128.2Z" style="fill:#fff"/><path d="M170.5,131.6c.1.2.1.5-.1.6a.4.4,0,0,1-.6-.2c-.1-.2-.1-.5.1-.6A.5.5,0,0,1,170.5,131.6Z" style="fill:#fff"/><path d="M203,78.1c.1.3.1.5-.2.7a.5.5,0,0,1-.6-.2.5.5,0,0,1,.2-.7A.5.5,0,0,1,203,78.1Z" style="fill:#fff"/><path d="M169.6,70.3a.7.7,0,0,1-.3.9.7.7,0,0,1-.9-.2c-.1-.4,0-.8.3-.9A.7.7,0,0,1,169.6,70.3Z" style="fill:#fff"/><path d="M181.7,82.8a.6.6,0,0,1-.2.7.4.4,0,0,1-.7-.2c-.2-.2-.1-.5.2-.7A.7.7,0,0,1,181.7,82.8Z" style="fill:#fff"/><path d="M214.3,96.5a.5.5,0,0,1-.2.6c-.2.1-.4,0-.6-.2a.4.4,0,0,1,.2-.5A.5.5,0,0,1,214.3,96.5Z" style="fill:#fff"/><path d="M206.3,125.1a.4.4,0,1,1-.5-.1A.4.4,0,0,1,206.3,125.1Z" style="fill:#fff"/><path d="M217.2,158.6c.1.2.1.4-.1.5a.7.7,0,0,1-.6-.1.5.5,0,0,1,.2-.6A.4.4,0,0,1,217.2,158.6Z" style="fill:#fff"/><path d="M245.8,128.5a.4.4,0,0,1-.2.6.4.4,0,0,1-.6-.1c-.1-.3-.1-.6.2-.7A.5.5,0,0,1,245.8,128.5Z" style="fill:#fff"/><path d="M206.3,153.5a.4.4,0,0,1-.2.4c-.2.1-.4.1-.5-.1s0-.4.2-.5S206.2,153.3,206.3,153.5Z" style="fill:#fff"/><path d="M198.5,162.4a.4.4,0,1,1-.6.4c-.1-.2-.1-.4.1-.5S198.4,162.2,198.5,162.4Z" style="fill:#fff"/><path d="M169.6,161.1a.4.4,0,1,1-.8.4.4.4,0,0,1,.8-.4Z" style="fill:#fff"/><path d="M181.5,176.3a.5.5,0,0,1-.9.5.5.5,0,1,1,.9-.5Z" style="fill:#fff"/><path d="M213.9,186.8a.5.5,0,0,1-.2.8.5.5,0,0,1-.7-.3c-.2-.2-.1-.5.2-.7A.6.6,0,0,1,213.9,186.8Z" style="fill:#fff"/><path d="M224.7,187.6a.7.7,0,0,1-.3.8.4.4,0,0,1-.7-.2.5.5,0,0,1,.2-.8A.5.5,0,0,1,224.7,187.6Z" style="fill:#fff"/><path d="M277.1,161.5a.8.8,0,0,1-.3,1.1.9.9,0,0,1-1.1-.3.8.8,0,0,1,1.4-.8Z" style="fill:#fff"/><path d="M277.7,137.3a.7.7,0,1,1-1.2.7.8.8,0,0,1,.2-1A.7.7,0,0,1,277.7,137.3Z" style="fill:#fff"/><path d="M261.9,108.4a.5.5,0,0,1-.2.8.5.5,0,0,1-.8-.2.7.7,0,0,1,.2-.9A.6.6,0,0,1,261.9,108.4Z" style="fill:#fff"/><path d="M252,84.1a.7.7,0,0,1-.2.9.6.6,0,0,1-.8-.3.6.6,0,0,1,1-.6Z" style="fill:#fff"/><path d="M241.9,62.7a.8.8,0,0,1-.2,1,.8.8,0,0,1-1-.3.7.7,0,0,1,.3-.9A.6.6,0,0,1,241.9,62.7Z" style="fill:#fff"/><path d="M228.8,46.4a.8.8,0,0,1-.4,1.1.7.7,0,0,1-1-.3.8.8,0,0,1,.3-1.1A.8.8,0,0,1,228.8,46.4Z" style="fill:#fff"/><path d="M204.3,48.3a.8.8,0,0,1-.3,1,.8.8,0,0,1-1-.3.7.7,0,0,1,.3-1A.7.7,0,0,1,204.3,48.3Z" style="fill:#fff"/><path d="M196.4,46.2a.7.7,0,1,1-1.3.7.7.7,0,0,1,1.3-.7Z" style="fill:#fff"/><path d="M201.7,67.7a.5.5,0,0,1-.3.7.4.4,0,0,1-.7-.2.4.4,0,0,1,.2-.7A.5.5,0,0,1,201.7,67.7Z" style="fill:#fff"/><path d="M201.3,129c.1.1.1.4-.1.4s-.4.1-.5-.1,0-.4.2-.5S201.3,128.8,201.3,129Z" style="fill:#fff"/><path d="M186.7,141.3a.4.4,0,0,1-.2.5c-.1.1-.4,0-.4-.1s-.1-.4.1-.5S186.6,141.1,186.7,141.3Z" style="fill:#fff"/><path d="M207.8,163a.7.7,0,0,1-.1.6.5.5,0,0,1-.6-.2.4.4,0,0,1,.2-.5A.4.4,0,0,1,207.8,163Z" style="fill:#fff"/><path d="M211.6,169.1c.1.2.1.5-.1.6a.5.5,0,0,1-.6-.2c-.1-.2-.1-.4.2-.6A.4.4,0,0,1,211.6,169.1Z" style="fill:#fff"/><path d="M207.6,131.6c.1.2.1.4-.1.5s-.4,0-.4-.1-.1-.4.1-.5S207.6,131.5,207.6,131.6Z" style="fill:#fff"/><path d="M217.5,130.9a.4.4,0,0,1-.2.5c-.1.1-.4,0-.5-.2s0-.4.2-.5S217.4,130.7,217.5,130.9Z" style="fill:#fff"/><path d="M233.9,142.5c.2.3.1.5-.1.6s-.5.1-.6-.1a.5.5,0,0,1,.2-.6C233.6,142.3,233.8,142.3,233.9,142.5Z" style="fill:#fff"/><path d="M246.2,143.6a.5.5,0,0,1-.9.5.5.5,0,0,1,.9-.5Z" style="fill:#fff"/><path d="M195.8,115.5c.1.2.1.4-.1.5s-.4.1-.5-.1-.1-.4.1-.5S195.7,115.3,195.8,115.5Z" style="fill:#fff"/><path d="M187,104.7a.5.5,0,0,1-.2.6.4.4,0,0,1-.5-.2.4.4,0,0,1,.1-.6A.5.5,0,0,1,187,104.7Z" style="fill:#fff"/><path d="M180.7,104.7a.4.4,0,0,1-.1.6.5.5,0,0,1-.6-.2c-.1-.2-.1-.5.1-.6A.4.4,0,0,1,180.7,104.7Z" style="fill:#fff"/><path d="M228.4,101.1a.5.5,0,0,1-.2.6.4.4,0,0,1-.6-.2.4.4,0,0,1,.2-.5C228,100.9,228.3,100.9,228.4,101.1Z" style="fill:#fff"/><path d="M253.8,124.3a.6.6,0,0,1-.2.7.6.6,0,0,1-.7-.2.4.4,0,0,1,.2-.7C253.3,123.9,253.6,124,253.8,124.3Z" style="fill:#fff"/><path d="M265.2,145.1a.7.7,0,0,1-.3.9c-.3.2-.6,0-.8-.3a.5.5,0,0,1,.2-.8A.7.7,0,0,1,265.2,145.1Z" style="fill:#fff"/></g><g style="mix-blend-mode:overlay"><path d="M319.5,214.2a.7.7,0,0,1-.3,1,.8.8,0,0,1-1-.3.8.8,0,0,1,.3-1A.7.7,0,0,1,319.5,214.2Z" style="fill:#fff"/><path d="M335.9,183.8a.8.8,0,0,1-.3,1.2.9.9,0,1,1-.8-1.5A.8.8,0,0,1,335.9,183.8Z" style="fill:#fff"/><path d="M331.2,234.5a.5.5,0,0,1-.2.8.7.7,0,0,1-.8-.3.5.5,0,0,1,.3-.7A.4.4,0,0,1,331.2,234.5Z" style="fill:#fff"/><path d="M333.6,239.1c.2.2.1.5-.2.7a.6.6,0,0,1-.7-.2.5.5,0,0,1,.2-.8A.5.5,0,0,1,333.6,239.1Z" style="fill:#fff"/><path d="M323.4,253.4a.7.7,0,0,1-.2.8.6.6,0,0,1-.6-1A.5.5,0,0,1,323.4,253.4Z" style="fill:#fff"/><path d="M396.5,222.8a.5.5,0,0,1-.2.6.5.5,0,0,1-.6-.1.4.4,0,0,1,.2-.6C396.1,222.6,396.4,222.6,396.5,222.8Z" style="fill:#fff"/><path d="M352.1,258.3a.5.5,0,0,1-.2.6c-.1.1-.4,0-.5-.2a.4.4,0,0,1,.2-.5A.3.3,0,0,1,352.1,258.3Z" style="fill:#fff"/><path d="M346.7,261.7a.4.4,0,1,1-.8.4c-.1-.2,0-.4.2-.6S346.5,261.5,346.7,261.7Z" style="fill:#fff"/><path d="M379.1,208.2a.5.5,0,0,1-.1.7.6.6,0,0,1-.7-.2.7.7,0,0,1,.2-.7A.5.5,0,0,1,379.1,208.2Z" style="fill:#fff"/><path d="M345.7,200.4a.7.7,0,0,1-.2.9c-.4.2-.8.1-.9-.2a.7.7,0,1,1,1.1-.7Z" style="fill:#fff"/><path d="M357.8,212.9a.6.6,0,0,1-.2.8.6.6,0,0,1-.7-.2.6.6,0,0,1,.2-.8A.6.6,0,0,1,357.8,212.9Z" style="fill:#fff"/><path d="M390.4,226.7c.1.1,0,.4-.2.5a.4.4,0,0,1-.5-.2.3.3,0,0,1,.1-.5A.5.5,0,0,1,390.4,226.7Z" style="fill:#fff"/><path d="M382.4,255.2c.1.2.1.4-.1.5a.4.4,0,0,1-.5-.1.4.4,0,0,1,.2-.5C382.1,255,382.3,255.1,382.4,255.2Z" style="fill:#fff"/><path d="M393.4,288.7a.4.4,0,0,1-.2.5c-.2.1-.4.1-.5-.1s-.1-.5.1-.6A.5.5,0,0,1,393.4,288.7Z" style="fill:#fff"/><path d="M422,258.6a.7.7,0,0,1-.2.7.6.6,0,0,1-.7-.2.6.6,0,0,1,.2-.7A.7.7,0,0,1,422,258.6Z" style="fill:#fff"/><path d="M382.4,283.6a.3.3,0,0,1-.2.4.2.2,0,0,1-.4-.1c-.1-.2-.1-.4.1-.5A.4.4,0,0,1,382.4,283.6Z" style="fill:#fff"/><path d="M374.6,292.5c.1.2.1.4-.1.5s-.4.1-.5-.1a.4.4,0,0,1,.6-.4Z" style="fill:#fff"/><path d="M345.7,291.2a.4.4,0,0,1-.1.6c-.3.2-.5.1-.7-.2a.4.4,0,0,1,.8-.4Z" style="fill:#fff"/><path d="M357.6,306.4a.6.6,0,0,1-.2.7.7.7,0,0,1-.7-.2.5.5,0,0,1,.2-.6A.5.5,0,0,1,357.6,306.4Z" style="fill:#fff"/><path d="M390,316.9a.5.5,0,0,1-.2.8.6.6,0,0,1-.7-.2.8.8,0,0,1,.2-.8A.6.6,0,0,1,390,316.9Z" style="fill:#fff"/><path d="M400.8,317.7a.5.5,0,0,1-.2.8.6.6,0,0,1-.6-1A.8.8,0,0,1,400.8,317.7Z" style="fill:#fff"/><path d="M453.2,291.6a.8.8,0,0,1-.3,1.1.8.8,0,0,1-1.1-.3.8.8,0,0,1,.4-1.1A.7.7,0,0,1,453.2,291.6Z" style="fill:#fff"/><path d="M453.9,267.4a.8.8,0,0,1-.3,1,.8.8,0,0,1-1-.3.7.7,0,0,1,.3-1A.7.7,0,0,1,453.9,267.4Z" style="fill:#fff"/><path d="M438.1,238.5a.7.7,0,0,1-.3.8.5.5,0,0,1-.8-.2.7.7,0,0,1,.2-.9A.8.8,0,0,1,438.1,238.5Z" style="fill:#fff"/><path d="M428.2,214.2a.8.8,0,0,1-.3.9.7.7,0,0,1-.8-.3.5.5,0,0,1,.2-.8A.7.7,0,0,1,428.2,214.2Z" style="fill:#fff"/><path d="M418.1,192.8a.8.8,0,0,1-.3,1,.6.6,0,0,1-.9-.3.7.7,0,0,1,.2-.9A.8.8,0,0,1,418.1,192.8Z" style="fill:#fff"/><path d="M404.9,176.5a.8.8,0,1,1-1.1-.3A.9.9,0,0,1,404.9,176.5Z" style="fill:#fff"/><path d="M380.4,178.4a.7.7,0,0,1-.3,1,.8.8,0,0,1-1-.3.8.8,0,0,1,.3-1A.7.7,0,0,1,380.4,178.4Z" style="fill:#fff"/><path d="M372.5,176.3a.8.8,0,0,1-.3,1.1.8.8,0,0,1-.7-1.4A.7.7,0,0,1,372.5,176.3Z" style="fill:#fff"/><path d="M377.8,197.8a.6.6,0,0,1-.2.7.5.5,0,0,1-.8-.2.6.6,0,0,1,.2-.7A.5.5,0,0,1,377.8,197.8Z" style="fill:#fff"/><path d="M377.5,259.1a.4.4,0,0,1-.2.5.4.4,0,0,1-.4-.2c-.1-.1-.1-.4.1-.4S377.4,258.9,377.5,259.1Z" style="fill:#fff"/><path d="M362.8,271.4a.4.4,0,0,1-.6.4c-.1-.2-.1-.4.1-.5A.4.4,0,0,1,362.8,271.4Z" style="fill:#fff"/><path d="M383.9,293.1c.1.2.1.5-.1.6a.4.4,0,0,1-.5-.2c-.1-.2-.1-.4.1-.5A.4.4,0,0,1,383.9,293.1Z" style="fill:#fff"/><path d="M387.7,299.2a.4.4,0,0,1-.1.6.5.5,0,0,1-.6-.2.4.4,0,0,1,.2-.5C387.4,298.9,387.6,299,387.7,299.2Z" style="fill:#fff"/><path d="M383.8,261.7a.4.4,0,0,1-.2.5c-.1.1-.3,0-.4-.1a.4.4,0,1,1,.6-.4Z" style="fill:#fff"/><path d="M393.6,261a.4.4,0,0,1-.1.5.4.4,0,0,1-.5-.2.2.2,0,0,1,.1-.4C393.3,260.8,393.5,260.8,393.6,261Z" style="fill:#fff"/><path d="M410.1,272.7a.4.4,0,0,1-.2.5c-.2.1-.5.1-.6-.1a.4.4,0,0,1,.8-.4Z" style="fill:#fff"/><path d="M422.3,273.7a.6.6,0,0,1-.2.7.5.5,0,1,1-.5-.9A.6.6,0,0,1,422.3,273.7Z" style="fill:#fff"/><path d="M372,245.6a.4.4,0,0,1-.2.5c-.2.1-.4.1-.5-.1a.4.4,0,0,1,.2-.5C371.6,245.4,371.9,245.5,372,245.6Z" style="fill:#fff"/><path d="M363.1,234.8c.1.2.1.5-.1.6a.5.5,0,0,1-.6-.2.5.5,0,0,1,.1-.6A.4.4,0,0,1,363.1,234.8Z" style="fill:#fff"/><path d="M356.9,234.8a.4.4,0,1,1-.6-.2C356.5,234.5,356.7,234.6,356.9,234.8Z" style="fill:#fff"/><path d="M404.5,231.2a.4.4,0,0,1-.2.6c-.2.1-.4.1-.5-.1a.4.4,0,0,1,.1-.6C404.1,231,404.4,231,404.5,231.2Z" style="fill:#fff"/><path d="M429.9,254.4a.4.4,0,0,1-.2.7c-.2.1-.6.1-.7-.2s-.1-.6.2-.7A.4.4,0,0,1,429.9,254.4Z" style="fill:#fff"/><path d="M441.3,275.3a.5.5,0,0,1-.2.8.7.7,0,0,1-.9-.2.8.8,0,0,1,.3-.9C440.8,274.8,441.1,274.9,441.3,275.3Z" style="fill:#fff"/></g><g style="mix-blend-mode:overlay"><path d="M94,236.6a.8.8,0,1,1-1.3.8.7.7,0,0,1,.3-1A.8.8,0,0,1,94,236.6Z" style="fill:#fff"/><path d="M110.4,206.3a.8.8,0,0,1-.3,1.2,1,1,0,0,1-1.2-.3.9.9,0,0,1,.4-1.2A.8.8,0,0,1,110.4,206.3Z" style="fill:#fff"/><path d="M105.7,257a.4.4,0,0,1-.2.7.5.5,0,0,1-.8-.2.8.8,0,0,1,.2-.8A.6.6,0,0,1,105.7,257Z" style="fill:#fff"/><circle cx="107.6" cy="261.8" r="0.5" style="fill:#fff"/><path d="M97.9,275.9a.7.7,0,0,1-.3.8.6.6,0,0,1-.8-.2.6.6,0,0,1,.3-.8A.5.5,0,0,1,97.9,275.9Z" style="fill:#fff"/><path d="M171,245.3a.5.5,0,0,1-.2.6.4.4,0,0,1-.6-.2.4.4,0,0,1,.2-.5A.4.4,0,0,1,171,245.3Z" style="fill:#fff"/><path d="M126.6,280.8a.5.5,0,0,1-.2.6.4.4,0,0,1-.5-.2c-.1-.2-.1-.4.1-.5A.4.4,0,0,1,126.6,280.8Z" style="fill:#fff"/><path d="M121.1,284.2a.4.4,0,0,1-.1.6.4.4,0,1,1-.4-.8A.4.4,0,0,1,121.1,284.2Z" style="fill:#fff"/><path d="M153.6,230.7a.5.5,0,0,1-.1.7.6.6,0,0,1-.7-.2.7.7,0,0,1,.2-.7A.5.5,0,0,1,153.6,230.7Z" style="fill:#fff"/><path d="M120.2,222.9a.6.6,0,0,1-.3.9.5.5,0,0,1-.8-.2c-.2-.4-.1-.8.2-.9A.7.7,0,0,1,120.2,222.9Z" style="fill:#fff"/><path d="M132.3,235.4a.6.6,0,0,1-.2.7.4.4,0,0,1-.7-.2c-.2-.2-.1-.5.2-.7A.6.6,0,0,1,132.3,235.4Z" style="fill:#fff"/><path d="M164.9,249.1a.5.5,0,0,1-.2.6.4.4,0,0,1-.5-.2c-.1-.2-.1-.4.1-.5S164.8,248.9,164.9,249.1Z" style="fill:#fff"/><path d="M156.9,277.7c.1.2.1.4-.1.5a.4.4,0,0,1-.5-.1.4.4,0,0,1,.2-.5C156.6,277.5,156.8,277.6,156.9,277.7Z" style="fill:#fff"/><path d="M167.9,311.2a.4.4,0,0,1-.2.5.4.4,0,0,1-.5-.1c-.1-.2-.1-.5.1-.6S167.7,311,167.9,311.2Z" style="fill:#fff"/><path d="M196.4,281.1a.4.4,0,0,1-.1.6.5.5,0,0,1-.7-.1.6.6,0,0,1,.2-.7A.5.5,0,0,1,196.4,281.1Z" style="fill:#fff"/><path d="M156.9,306.1c.1.1,0,.3-.2.4a.2.2,0,0,1-.4-.1c-.1-.2-.1-.4.1-.5A.4.4,0,0,1,156.9,306.1Z" style="fill:#fff"/><path d="M149.1,315c.1.2.1.4-.1.5a.4.4,0,0,1-.4-.6C148.8,314.8,149,314.8,149.1,315Z" style="fill:#fff"/><path d="M120.2,313.7a.4.4,0,0,1-.1.6c-.3.1-.6.1-.7-.2a.4.4,0,0,1,.8-.4Z" style="fill:#fff"/><path d="M132.1,328.9a.6.6,0,0,1-.2.7.5.5,0,1,1-.5-.9A.6.6,0,0,1,132.1,328.9Z" style="fill:#fff"/><path d="M164.5,339.4a.5.5,0,0,1-.2.8.5.5,0,0,1-.7-.3c-.2-.2-.1-.5.2-.7A.6.6,0,0,1,164.5,339.4Z" style="fill:#fff"/><path d="M175.3,340.2a.8.8,0,0,1-.2.8.5.5,0,0,1-.8-.2.6.6,0,0,1,1-.6Z" style="fill:#fff"/><path d="M227.7,314.1a.8.8,0,0,1-.3,1.1.8.8,0,0,1-.8-1.4A.8.8,0,0,1,227.7,314.1Z" style="fill:#fff"/><path d="M228.4,289.9a.8.8,0,0,1-.3,1,.8.8,0,0,1-1-.3.7.7,0,0,1,.3-1A.7.7,0,0,1,228.4,289.9Z" style="fill:#fff"/><path d="M212.5,261a.6.6,0,1,1-1,.6.7.7,0,0,1,.2-.9A.6.6,0,0,1,212.5,261Z" style="fill:#fff"/><path d="M202.7,236.7a.8.8,0,0,1-.3.9.6.6,0,0,1-.8-.3.5.5,0,0,1,.2-.8A.7.7,0,0,1,202.7,236.7Z" style="fill:#fff"/><path d="M192.6,215.3a.8.8,0,0,1-.3,1,.8.8,0,0,1-1-.3c-.1-.3,0-.8.3-.9A.8.8,0,0,1,192.6,215.3Z" style="fill:#fff"/><path d="M179.4,199a.8.8,0,1,1-1.1-.3A.8.8,0,0,1,179.4,199Z" style="fill:#fff"/><path d="M154.9,200.9a.7.7,0,0,1-.3,1,.8.8,0,0,1-1-.3.7.7,0,1,1,1.3-.7Z" style="fill:#fff"/><path d="M147,198.8a.7.7,0,0,1-.3,1,.7.7,0,1,1-.7-1.3A.7.7,0,0,1,147,198.8Z" style="fill:#fff"/><path d="M152.3,220.3a.6.6,0,0,1-.2.7.5.5,0,0,1-.8-.2.6.6,0,0,1,.2-.7A.5.5,0,0,1,152.3,220.3Z" style="fill:#fff"/><path d="M152,281.6a.3.3,0,0,1-.2.4.2.2,0,0,1-.4-.1c-.1-.2-.1-.4.1-.5S151.9,281.4,152,281.6Z" style="fill:#fff"/><path d="M137.3,293.9a.4.4,0,0,1-.6.4c-.1-.2-.1-.4.1-.5S137.2,293.7,137.3,293.9Z" style="fill:#fff"/><path d="M158.4,315.6c.1.2.1.5-.1.6a.4.4,0,0,1-.5-.2c-.1-.2-.1-.4.1-.5A.4.4,0,0,1,158.4,315.6Z" style="fill:#fff"/><path d="M162.2,321.7a.4.4,0,0,1-.1.6.5.5,0,0,1-.6-.2.4.4,0,0,1,.2-.5C161.9,321.4,162.1,321.5,162.2,321.7Z" style="fill:#fff"/><path d="M158.3,284.2a.4.4,0,0,1-.2.5c-.1.1-.3,0-.4-.1s-.1-.4.1-.5A.4.4,0,0,1,158.3,284.2Z" style="fill:#fff"/><path d="M168.1,283.5a.4.4,0,0,1-.2.5c-.1.1-.3,0-.4-.2s-.1-.4.1-.4S168,283.3,168.1,283.5Z" style="fill:#fff"/><path d="M184.6,295.2a.4.4,0,0,1-.2.5c-.2.1-.5.1-.6-.1a.5.5,0,0,1,.2-.6C184.2,294.9,184.4,294.9,184.6,295.2Z" style="fill:#fff"/><path d="M196.8,296.2a.6.6,0,0,1-.2.7.6.6,0,0,1-.7-.2.5.5,0,1,1,.9-.5Z" style="fill:#fff"/><path d="M146.4,268.1c.1.2.1.4-.1.5s-.4.1-.5-.1a.4.4,0,0,1,.1-.5C146.1,267.9,146.3,267.9,146.4,268.1Z" style="fill:#fff"/><path d="M137.6,257.3a.5.5,0,0,1-.2.6.4.4,0,0,1-.5-.2c-.1-.2-.1-.5.1-.6A.5.5,0,0,1,137.6,257.3Z" style="fill:#fff"/><path d="M131.4,257.3a.4.4,0,1,1-.6-.2C131,257,131.2,257.1,131.4,257.3Z" style="fill:#fff"/><path d="M179,253.7a.5.5,0,0,1-.2.6c-.2.1-.4.1-.5-.1s-.1-.5.1-.6S178.9,253.5,179,253.7Z" style="fill:#fff"/><path d="M204.4,276.9c.1.2.1.6-.2.7a.6.6,0,0,1-.7-.2.4.4,0,0,1,.2-.7A.4.4,0,0,1,204.4,276.9Z" style="fill:#fff"/><path d="M215.8,297.7a.7.7,0,0,1-.2.9.6.6,0,0,1-.9-.3c-.2-.3,0-.6.3-.8A.5.5,0,0,1,215.8,297.7Z" style="fill:#fff"/></g><g style="mix-blend-mode:overlay"><path d="M82,369.5a.8.8,0,0,1-.3,1.1.8.8,0,0,1-1-.3.8.8,0,1,1,1.3-.8Z" style="fill:#fff"/><path d="M98.4,339.2a1,1,0,0,1-.3,1.2.9.9,0,0,1-1.2-.4.8.8,0,0,1,.3-1.1A.9.9,0,0,1,98.4,339.2Z" style="fill:#fff"/><path d="M93.7,389.9a.6.6,0,0,1-.2.7.5.5,0,0,1-.8-.2.5.5,0,0,1,.2-.8A.7.7,0,0,1,93.7,389.9Z" style="fill:#fff"/><circle cx="95.6" cy="394.7" r="0.5" style="fill:#fff"/><path d="M85.8,408.8a.5.5,0,0,1-.2.8.8.8,0,0,1-.8-.2.7.7,0,0,1,.2-.8A.5.5,0,0,1,85.8,408.8Z" style="fill:#fff"/><path d="M159,378.2a.4.4,0,1,1-.8.4c-.1-.2,0-.4.2-.6S158.8,378,159,378.2Z" style="fill:#fff"/><path d="M114.6,413.7c.1.2,0,.4-.2.6a.4.4,0,0,1-.5-.2c-.2-.2-.1-.4.1-.6A.5.5,0,0,1,114.6,413.7Z" style="fill:#fff"/><path d="M109.1,417.1a.4.4,0,0,1-.2.6.4.4,0,0,1-.5-.2.4.4,0,0,1,.1-.6A.5.5,0,0,1,109.1,417.1Z" style="fill:#fff"/><path d="M141.6,363.6a.5.5,0,0,1-.2.7.5.5,0,0,1-.6-.2c-.2-.3-.1-.5.2-.7A.5.5,0,0,1,141.6,363.6Z" style="fill:#fff"/><path d="M108.2,355.8a.8.8,0,0,1-.3.9.6.6,0,0,1-.9-.3.6.6,0,0,1,.3-.8A.7.7,0,0,1,108.2,355.8Z" style="fill:#fff"/><path d="M120.3,368.3a.6.6,0,0,1-.2.7.4.4,0,0,1-.7-.2c-.2-.2-.1-.5.2-.7A.7.7,0,0,1,120.3,368.3Z" style="fill:#fff"/><path d="M152.8,382a.4.4,0,0,1-.1.6.5.5,0,0,1-.6-.2.4.4,0,0,1,.2-.5C152.5,381.8,152.7,381.8,152.8,382Z" style="fill:#fff"/><path d="M144.9,410.6a.4.4,0,1,1-.5-.1C144.6,410.4,144.8,410.4,144.9,410.6Z" style="fill:#fff"/><path d="M155.8,444.1c.1.2.1.4-.1.5a.5.5,0,0,1-.6-.2c-.1-.1,0-.4.2-.5A.4.4,0,0,1,155.8,444.1Z" style="fill:#fff"/><path d="M184.4,414a.4.4,0,0,1-.2.6.4.4,0,0,1-.6-.1c-.1-.3-.1-.6.2-.7A.5.5,0,0,1,184.4,414Z" style="fill:#fff"/><path d="M144.8,439a.2.2,0,0,1-.1.4c-.2.1-.4.1-.5-.1a.4.4,0,0,1,.2-.5C144.5,438.7,144.7,438.8,144.8,439Z" style="fill:#fff"/><path d="M137.1,447.9a.4.4,0,0,1-.6.4c-.1-.2-.1-.4.1-.5S137,447.7,137.1,447.9Z" style="fill:#fff"/><path d="M108.2,446.6a.4.4,0,1,1-.6-.2A.5.5,0,0,1,108.2,446.6Z" style="fill:#fff"/><path d="M120,461.8a.5.5,0,0,1-.1.7.6.6,0,0,1-.7-.2.7.7,0,0,1,.2-.7A.5.5,0,0,1,120,461.8Z" style="fill:#fff"/><path d="M152.5,472.3c.1.3.1.6-.2.7a.4.4,0,0,1-.7-.2.4.4,0,0,1,.2-.7A.6.6,0,0,1,152.5,472.3Z" style="fill:#fff"/><path d="M163.3,473.1a.7.7,0,0,1-.3.8.6.6,0,0,1-.7-.2.5.5,0,0,1,.2-.8A.5.5,0,0,1,163.3,473.1Z" style="fill:#fff"/><path d="M215.7,447a.8.8,0,0,1-.3,1.1.9.9,0,0,1-1.1-.3.8.8,0,1,1,1.4-.8Z" style="fill:#fff"/><path d="M216.3,422.8a.7.7,0,0,1-.3,1,.7.7,0,0,1-.9-.3.8.8,0,0,1,.2-1A.7.7,0,0,1,216.3,422.8Z" style="fill:#fff"/><path d="M200.5,393.9a.5.5,0,0,1-.2.8.7.7,0,0,1-.8-.2.7.7,0,0,1,.2-.9A.6.6,0,0,1,200.5,393.9Z" style="fill:#fff"/><path d="M190.6,369.6a.7.7,0,0,1-.2.9.6.6,0,0,1-.8-.3.6.6,0,1,1,1-.6Z" style="fill:#fff"/><path d="M180.5,348.2a.8.8,0,0,1-.2,1,.8.8,0,0,1-1-.3.7.7,0,0,1,.3-.9A.6.6,0,0,1,180.5,348.2Z" style="fill:#fff"/><path d="M167.3,331.9a.7.7,0,0,1-.3,1.1.7.7,0,0,1-1-.3.8.8,0,0,1,.3-1.1A.7.7,0,0,1,167.3,331.9Z" style="fill:#fff"/><path d="M142.9,333.8a.8.8,0,0,1-.3,1,.8.8,0,0,1-1-.3.7.7,0,0,1,.3-1A.7.7,0,0,1,142.9,333.8Z" style="fill:#fff"/><path d="M135,331.7a.7.7,0,0,1-1.3.7.7.7,0,1,1,1.3-.7Z" style="fill:#fff"/><path d="M140.2,353.2a.5.5,0,1,1-.9.5.5.5,0,0,1,.2-.8A.5.5,0,0,1,140.2,353.2Z" style="fill:#fff"/><path d="M139.9,414.5a.2.2,0,0,1-.1.4c-.2.1-.4.1-.5-.1a.4.4,0,0,1,.2-.5C139.6,414.2,139.8,414.3,139.9,414.5Z" style="fill:#fff"/><path d="M125.3,426.8a.4.4,0,0,1-.2.5c-.1.1-.4,0-.5-.1a.4.4,0,0,1,.2-.5C125,426.6,125.2,426.6,125.3,426.8Z" style="fill:#fff"/><path d="M146.4,448.5a.4.4,0,0,1-.1.5c-.2.1-.5.1-.6-.1a.4.4,0,0,1,.2-.5C146.1,448.3,146.3,448.3,146.4,448.5Z" style="fill:#fff"/><path d="M150.2,454.6a.5.5,0,0,1-.2.6.4.4,0,0,1-.5-.2.5.5,0,0,1,.1-.6A.5.5,0,0,1,150.2,454.6Z" style="fill:#fff"/><path d="M146.2,417.1c.1.2.1.4-.1.5a.4.4,0,0,1-.5-.2.4.4,0,0,1,.2-.4C145.9,416.9,146.1,417,146.2,417.1Z" style="fill:#fff"/><path d="M156.1,416.4a.4.4,0,1,1-.7.3c-.1-.1,0-.4.2-.5S156,416.2,156.1,416.4Z" style="fill:#fff"/><path d="M172.5,428c.1.2.1.5-.1.6a.4.4,0,0,1-.6-.2.4.4,0,0,1,.2-.5C172.2,427.8,172.4,427.8,172.5,428Z" style="fill:#fff"/><path d="M184.7,429.1a.5.5,0,0,1-.1.7.6.6,0,0,1-.7-.2.5.5,0,0,1,.2-.7A.5.5,0,0,1,184.7,429.1Z" style="fill:#fff"/><path d="M134.4,401c.1.2.1.4-.1.5s-.4.1-.5-.1-.1-.4.1-.5S134.3,400.8,134.4,401Z" style="fill:#fff"/><path d="M125.6,390.2c.1.2,0,.4-.2.6s-.4,0-.6-.2a.4.4,0,1,1,.8-.4Z" style="fill:#fff"/><path d="M119.3,390.2a.5.5,0,0,1-.1.6.4.4,0,0,1-.6-.2.4.4,0,0,1,.1-.6A.5.5,0,0,1,119.3,390.2Z" style="fill:#fff"/><path d="M167,386.6a.4.4,0,0,1-.8.4.4.4,0,0,1,.2-.5A.4.4,0,0,1,167,386.6Z" style="fill:#fff"/><path d="M192.4,409.8a.7.7,0,0,1-.2.7.6.6,0,0,1-.7-.2.4.4,0,0,1,.2-.7C191.9,409.4,192.2,409.5,192.4,409.8Z" style="fill:#fff"/><path d="M203.8,430.6a.8.8,0,0,1-.3.9.7.7,0,0,1-.8-.3.5.5,0,0,1,.2-.8A.7.7,0,0,1,203.8,430.6Z" style="fill:#fff"/></g><g style="mix-blend-mode:overlay"><path d="M153.5,266.4a1.4,1.4,0,0,1-.5,1.8,1.4,1.4,0,0,1-1.8-.5,1.3,1.3,0,0,1,.5-1.8A1.4,1.4,0,0,1,153.5,266.4Z" style="fill:#fff"/><path d="M181.9,213.9a1.5,1.5,0,1,1-2-.6A1.5,1.5,0,0,1,181.9,213.9Z" style="fill:#fff"/><path d="M173.7,301.6a1,1,0,1,1-1.3-.4A1,1,0,0,1,173.7,301.6Z" style="fill:#fff"/><path d="M177.9,309.6a.9.9,0,0,1-.4,1.2.9.9,0,1,1-.9-1.6A.9.9,0,0,1,177.9,309.6Z" style="fill:#fff"/><path d="M160.1,334.4a1,1,0,0,1-.4,1.4,1,1,0,0,1-1.4-.4,1.1,1.1,0,0,1,.4-1.3A1.1,1.1,0,0,1,160.1,334.4Z" style="fill:#fff"/><path d="M286.8,281.5a.7.7,0,0,1-.3,1,.8.8,0,0,1-1-.3.7.7,0,1,1,1.3-.7Z" style="fill:#fff"/><path d="M209.9,343a.7.7,0,1,1-1.2.6.7.7,0,0,1,.2-.9A.7.7,0,0,1,209.9,343Z" style="fill:#fff"/><path d="M200.5,348.8a.8.8,0,0,1-.3,1,.8.8,0,1,1-.8-1.3A.9.9,0,0,1,200.5,348.8Z" style="fill:#fff"/><path d="M256.8,256.2a.8.8,0,0,1-.4,1.1.8.8,0,0,1-1.1-.3,1,1,0,0,1,.3-1.2A1,1,0,0,1,256.8,256.2Z" style="fill:#fff"/><path d="M198.8,242.6a1.2,1.2,0,0,1-.4,1.6,1.2,1.2,0,0,1-1.6-.5,1.1,1.1,0,0,1,.5-1.5A1.1,1.1,0,0,1,198.8,242.6Z" style="fill:#fff"/><path d="M219.8,264.3a.9.9,0,0,1-1.6.9.9.9,0,0,1,.4-1.2A.9.9,0,0,1,219.8,264.3Z" style="fill:#fff"/><path d="M276.2,288.1a.7.7,0,0,1-.2.9.8.8,0,0,1-1-.2.7.7,0,0,1,.3-1A.6.6,0,0,1,276.2,288.1Z" style="fill:#fff"/><path d="M262.5,337.6a.6.6,0,0,1-.3.8.5.5,0,0,1-.8-.2.5.5,0,0,1,.2-.8A.7.7,0,0,1,262.5,337.6Z" style="fill:#fff"/><path d="M281.4,395.6a.7.7,0,1,1-.9-.3A.6.6,0,0,1,281.4,395.6Z" style="fill:#fff"/><path d="M330.9,343.5a.7.7,0,0,1-.3,1.1.8.8,0,0,1-1.1-.3,1,1,0,0,1,.3-1.2A.8.8,0,0,1,330.9,343.5Z" style="fill:#fff"/><path d="M262.4,386.7a.6.6,0,0,1-.3.8.5.5,0,0,1-.8-.2.6.6,0,0,1,.2-.8A.7.7,0,0,1,262.4,386.7Z" style="fill:#fff"/><path d="M248.9,402.2a.7.7,0,0,1-.2.9.7.7,0,0,1-.9-.3.7.7,0,0,1,.3-.8A.5.5,0,0,1,248.9,402.2Z" style="fill:#fff"/><path d="M198.9,399.9a.8.8,0,0,1-1.4.8.7.7,0,0,1,.3-1.1A.8.8,0,0,1,198.9,399.9Z" style="fill:#fff"/><path d="M219.4,426.3a1,1,0,0,1-.3,1.2,1,1,0,0,1-1.2-.4.8.8,0,0,1,.4-1.1A.8.8,0,0,1,219.4,426.3Z" style="fill:#fff"/><path d="M275.6,444.5a1,1,0,0,1-.3,1.3,1,1,0,0,1-1.3-.4.9.9,0,0,1,.4-1.2A.8.8,0,0,1,275.6,444.5Z" style="fill:#fff"/><path d="M294.3,445.9a1,1,0,0,1-.4,1.4,1.2,1.2,0,0,1-1.4-.4,1.1,1.1,0,0,1,.4-1.4A1,1,0,0,1,294.3,445.9Z" style="fill:#fff"/><path d="M385.1,400.6a1.4,1.4,0,1,1-2.4,1.4,1.5,1.5,0,0,1,.6-1.9A1.4,1.4,0,0,1,385.1,400.6Z" style="fill:#fff"/><circle cx="385.1" cy="359.3" r="1.3" style="fill:#fff"/><path d="M358.8,308.6a1,1,0,0,1-1.8,1,1,1,0,1,1,1.8-1Z" style="fill:#fff"/><path d="M341.7,266.6a1,1,0,0,1-.4,1.4,1.1,1.1,0,0,1-1.5-.4,1.2,1.2,0,0,1,.5-1.5A1.1,1.1,0,0,1,341.7,266.6Z" style="fill:#fff"/><path d="M324.2,229.5a1.2,1.2,0,0,1-2.1,1.2,1.3,1.3,0,0,1,.5-1.7A1.2,1.2,0,0,1,324.2,229.5Z" style="fill:#fff"/><path d="M301.4,201.2a1.5,1.5,0,0,1-.6,1.9,1.3,1.3,0,0,1-1.8-.5,1.3,1.3,0,0,1,.5-1.9A1.4,1.4,0,0,1,301.4,201.2Z" style="fill:#fff"/><path d="M258.9,204.4a1.1,1.1,0,0,1-.5,1.7,1.2,1.2,0,0,1-1.7-.4,1.4,1.4,0,0,1,.5-1.8A1.3,1.3,0,0,1,258.9,204.4Z" style="fill:#fff"/><path d="M245.3,200.8a1.3,1.3,0,0,1-.5,1.8,1.2,1.2,0,0,1-1.8-.5,1.3,1.3,0,0,1,.5-1.8A1.4,1.4,0,0,1,245.3,200.8Z" style="fill:#fff"/><path d="M254.4,238a.9.9,0,0,1-.4,1.3,1,1,0,0,1-1.3-.3,1,1,0,0,1,1.7-1Z" style="fill:#fff"/><path d="M253.9,344.3a.7.7,0,0,1-.3.8c-.3.2-.6,0-.8-.2a.6.6,0,0,1,.3-.8A.6.6,0,0,1,253.9,344.3Z" style="fill:#fff"/><path d="M228.5,365.7a.7.7,0,0,1-.3.8.5.5,0,0,1-.8-.2.7.7,0,0,1,.2-.9A.7.7,0,0,1,228.5,365.7Z" style="fill:#fff"/><path d="M265.1,403.3a.8.8,0,0,1-.3.9.7.7,0,1,1-.6-1.2A.8.8,0,0,1,265.1,403.3Z" style="fill:#fff"/><path d="M271.7,413.8a.8.8,0,0,1-.3,1,.7.7,0,0,1-1-.3.7.7,0,0,1,.3-1A1,1,0,0,1,271.7,413.8Z" style="fill:#fff"/><path d="M264.8,348.9a.8.8,0,0,1-.2.8.6.6,0,0,1-.8-.3.6.6,0,0,1,.2-.8A.7.7,0,0,1,264.8,348.9Z" style="fill:#fff"/><path d="M281.8,347.6a.5.5,0,0,1-.2.8.7.7,0,0,1-.9-.2.6.6,0,0,1,.3-.8A.5.5,0,0,1,281.8,347.6Z" style="fill:#fff"/><path d="M310.3,367.8a.8.8,0,0,1-.2,1,.7.7,0,0,1-1-.3.7.7,0,0,1,.3-1A.6.6,0,0,1,310.3,367.8Z" style="fill:#fff"/><path d="M331.5,369.7a.8.8,0,0,1-.3,1.1,1,1,0,0,1-1.2-.3.9.9,0,0,1,.4-1.2A.8.8,0,0,1,331.5,369.7Z" style="fill:#fff"/><path d="M244.3,321a.5.5,0,0,1-.3.8.5.5,0,0,1-.8-.2.7.7,0,0,1,.2-.9A.7.7,0,0,1,244.3,321Z" style="fill:#fff"/><path d="M229,302.2a.8.8,0,0,1-.3,1,.7.7,0,1,1-.7-1.3A.8.8,0,0,1,229,302.2Z" style="fill:#fff"/><path d="M218.1,302.2a.8.8,0,0,1-.2,1,.8.8,0,0,1-1.1-.3.8.8,0,0,1,.3-1A.7.7,0,0,1,218.1,302.2Z" style="fill:#fff"/><path d="M300.7,296a.7.7,0,0,1-.3,1,.8.8,0,0,1-1-.2.8.8,0,0,1,.3-1.1A.8.8,0,0,1,300.7,296Z" style="fill:#fff"/><path d="M344.7,336.1a1,1,0,0,1-.3,1.3,1,1,0,0,1-1.3-.4,1,1,0,0,1,.4-1.2A.8.8,0,0,1,344.7,336.1Z" style="fill:#fff"/><path d="M364.5,372.3a1.1,1.1,0,0,1-.4,1.5,1.1,1.1,0,0,1-1.5-.5,1,1,0,0,1,.4-1.4A1.1,1.1,0,0,1,364.5,372.3Z" style="fill:#fff"/></g><g style="mix-blend-mode:overlay"><path d="M35.4,414.7a.8.8,0,0,1-.3,1,.7.7,0,0,1-1-.3.8.8,0,0,1,.2-1A.8.8,0,0,1,35.4,414.7Z" style="fill:#fff"/><path d="M5.3,389.4a.8.8,0,0,1-1.4.8.7.7,0,0,1,.3-1.1A.7.7,0,0,1,5.3,389.4Z" style="fill:#fff"/><path d="M24.8,421.3a.7.7,0,0,1-.3,1c-.3.1-.8,0-.9-.3a.8.8,0,0,1,.2-1A.8.8,0,0,1,24.8,421.3Z" style="fill:#fff"/><path d="M11,470.8a.7.7,0,0,1-.2.9.6.6,0,0,1-.8-.3.6.6,0,1,1,1-.6Z" style="fill:#fff"/><path d="M79.5,476.7a.8.8,0,0,1-.3,1.1,1,1,0,0,1-1.2-.3.8.8,0,0,1,.4-1.1A.8.8,0,0,1,79.5,476.7Z" style="fill:#fff"/><path d="M134.8,491.9a1.3,1.3,0,1,1-2.2,1.2,1.2,1.2,0,0,1,.5-1.7A1.3,1.3,0,0,1,134.8,491.9Z" style="fill:#fff"/><path d="M107.4,441.8a1,1,0,0,1-.4,1.4,1,1,0,0,1-1.4-.4,1,1,0,1,1,1.8-1Z" style="fill:#fff"/><path d="M90.3,399.8a1,1,0,0,1-.5,1.4,1,1,0,1,1-1-1.8A1.1,1.1,0,0,1,90.3,399.8Z" style="fill:#fff"/><path d="M72.8,362.7a1.3,1.3,0,0,1-.5,1.7,1.2,1.2,0,0,1-1.6-.5,1.2,1.2,0,0,1,.4-1.7A1.3,1.3,0,0,1,72.8,362.7Z" style="fill:#fff"/><path d="M49.9,334.5a1.3,1.3,0,0,1-.5,1.8,1.3,1.3,0,0,1-1.9-.5,1.4,1.4,0,0,1,.5-1.9A1.5,1.5,0,0,1,49.9,334.5Z" style="fill:#fff"/><path d="M7.5,337.7a1.3,1.3,0,0,1-.5,1.7,1.3,1.3,0,0,1-1.7-.5,1.2,1.2,0,0,1,.5-1.7A1.1,1.1,0,0,1,7.5,337.7Z" style="fill:#fff"/><path d="M2.9,371.3a1,1,0,0,1-.3,1.3,1,1,0,0,1-1.3-.4,1,1,0,0,1,.3-1.3A1,1,0,0,1,2.9,371.3Z" style="fill:#fff"/><path d="M2.4,477.5a.5.5,0,0,1-.2.8.5.5,0,0,1-.8-.2.5.5,0,0,1,.2-.8A.5.5,0,0,1,2.4,477.5Z" style="fill:#fff"/><path d="M13.3,482.1a.6.6,0,0,1-1,.6.6.6,0,1,1,1-.6Z" style="fill:#fff"/><path d="M30.3,480.8a.7.7,0,0,1-.2.9.6.6,0,0,1-.8-.3.6.6,0,1,1,1-.6Z" style="fill:#fff"/><path d="M49.3,429.3a.8.8,0,0,1-.3,1,.8.8,0,0,1-1-.3.7.7,0,0,1,.3-1A.7.7,0,0,1,49.3,429.3Z" style="fill:#fff"/><path d="M93.3,469.4a.9.9,0,0,1-.4,1.2.8.8,0,0,1-1.2-.3A1,1,0,0,1,92,469,1,1,0,0,1,93.3,469.4Z" style="fill:#fff"/></g><g style="mix-blend-mode:overlay"><path d="M190.7,478.7a1.3,1.3,0,0,1-.5,1.7,1.3,1.3,0,0,1-1.8-.5,1.4,1.4,0,0,1,.5-1.8A1.3,1.3,0,0,1,190.7,478.7Z" style="fill:#fff"/><path d="M219.1,426.1a1.5,1.5,0,0,1-2.6,1.4,1.5,1.5,0,1,1,2.6-1.4Z" style="fill:#fff"/><path d="M324,493.7a.8.8,0,0,1-.2,1,.8.8,0,1,1-.8-1.3A.7.7,0,0,1,324,493.7Z" style="fill:#fff"/><path d="M294,468.4a.8.8,0,0,1-.3,1.1,1,1,0,0,1-1.2-.3.8.8,0,0,1,.4-1.1A.7.7,0,0,1,294,468.4Z" style="fill:#fff"/><path d="M236,454.9a1.1,1.1,0,0,1-1.9,1.1,1.2,1.2,0,0,1,.4-1.6A1.1,1.1,0,0,1,236,454.9Z" style="fill:#fff"/><path d="M257,476.6a1,1,0,0,1-.3,1.2,1,1,0,0,1-1.3-.4,1,1,0,0,1,.4-1.2A.9.9,0,0,1,257,476.6Z" style="fill:#fff"/><path d="M313.5,500.3a.8.8,0,0,1-.3,1,1,1,0,0,1-1-.3.8.8,0,0,1,.3-1A.8.8,0,0,1,313.5,500.3Z" style="fill:#fff"/><path d="M378.9,478.8a1,1,0,0,1-.4,1.4,1,1,0,1,1-1-1.8A1,1,0,0,1,378.9,478.8Z" style="fill:#fff"/><path d="M361.4,441.7a1.2,1.2,0,0,1-.4,1.7,1.3,1.3,0,1,1-1.2-2.2A1.2,1.2,0,0,1,361.4,441.7Z" style="fill:#fff"/><path d="M338.6,413.5a1.3,1.3,0,0,1-.5,1.8,1.3,1.3,0,0,1-1.9-.5,1.4,1.4,0,0,1,.5-1.9A1.5,1.5,0,0,1,338.6,413.5Z" style="fill:#fff"/><path d="M296.2,416.7a1.3,1.3,0,0,1-.5,1.7,1.3,1.3,0,0,1-1.7-.5,1.2,1.2,0,0,1,.4-1.7A1.2,1.2,0,0,1,296.2,416.7Z" style="fill:#fff"/><path d="M282.5,413.1a1.3,1.3,0,0,1-.5,1.8,1.4,1.4,0,0,1-1.8-.5,1.4,1.4,0,0,1,.5-1.8A1.2,1.2,0,0,1,282.5,413.1Z" style="fill:#fff"/><circle cx="290.8" cy="450.7" r="1" transform="translate(-222.5 606.5) rotate(-74)" style="fill:#fff"/></g><g style="mix-blend-mode:overlay"><path d="M402.5,278.7a1.3,1.3,0,0,1-.5,1.7,1.3,1.3,0,0,1-1.8-.5,1.4,1.4,0,0,1,.5-1.8A1.4,1.4,0,0,1,402.5,278.7Z" style="fill:#fff"/><path d="M430.9,226.1a1.5,1.5,0,0,1-.6,2,1.4,1.4,0,0,1-2-.6,1.5,1.5,0,0,1,2.6-1.4Z" style="fill:#fff"/><path d="M422.7,313.9a1,1,0,0,1-.3,1.3,1,1,0,0,1-1.4-.4,1,1,0,0,1,1.7-.9Z" style="fill:#fff"/><path d="M426.9,321.8a1,1,0,0,1-1.7.9,1.1,1.1,0,0,1,.4-1.3A1,1,0,0,1,426.9,321.8Z" style="fill:#fff"/><path d="M409.1,346.7a1,1,0,0,1-.4,1.4,1.1,1.1,0,0,1-1.3-.4,1,1,0,0,1,.4-1.4A.9.9,0,0,1,409.1,346.7Z" style="fill:#fff"/><path d="M458.9,355.2a.7.7,0,0,1-.3,1,.8.8,0,0,1-.9-.3.7.7,0,0,1,.3-1A.6.6,0,0,1,458.9,355.2Z" style="fill:#fff"/><path d="M449.5,361a.9.9,0,0,1-.3,1.1.8.8,0,0,1-1-.3.7.7,0,0,1,.3-1A.8.8,0,0,1,449.5,361Z" style="fill:#fff"/><path d="M447.8,254.9a1.1,1.1,0,0,1-.4,1.5,1.1,1.1,0,0,1-1.5-.4,1.2,1.2,0,0,1,.4-1.6A1.1,1.1,0,0,1,447.8,254.9Z" style="fill:#fff"/><path d="M468.8,276.6a.9.9,0,0,1-1.6.8.9.9,0,1,1,1.6-.8Z" style="fill:#fff"/><path d="M498,414.5a.6.6,0,0,1-.3.8.5.5,0,0,1-.8-.2.7.7,0,0,1,.2-.9A.8.8,0,0,1,498,414.5Z" style="fill:#fff"/><path d="M447.9,412.1a.8.8,0,0,1-.3,1.1.7.7,0,0,1-1.1-.3.8.8,0,0,1,.3-1.1A.9.9,0,0,1,447.9,412.1Z" style="fill:#fff"/><path d="M468.4,438.6a.8.8,0,1,1-1.4.8.9.9,0,0,1,.3-1.2A.8.8,0,0,1,468.4,438.6Z" style="fill:#fff"/><path d="M494.3,213.1a1.3,1.3,0,0,1-.5,1.8,1.4,1.4,0,0,1-1.8-.5,1.4,1.4,0,0,1,.5-1.8A1.2,1.2,0,0,1,494.3,213.1Z" style="fill:#fff"/><path d="M477.5,377.9a.6.6,0,0,1-.3.8.5.5,0,0,1-.8-.2.7.7,0,0,1,.2-.9A.8.8,0,0,1,477.5,377.9Z" style="fill:#fff"/><path d="M493.3,333.2a.7.7,0,0,1-.2.9.8.8,0,0,1-.9-.3.5.5,0,0,1,.2-.8A.6.6,0,0,1,493.3,333.2Z" style="fill:#fff"/><path d="M478,314.4a.7.7,0,0,1-.3,1,.7.7,0,0,1-1-.3.7.7,0,0,1,.3-.9A.8.8,0,0,1,478,314.4Z" style="fill:#fff"/><path d="M467.2,314.4a.8.8,0,0,1-.3,1,.8.8,0,1,1,.3-1Z" style="fill:#fff"/></g><g style="mix-blend-mode:overlay"><path d="M55.9,176.7a.7.7,0,0,1-.3,1,.7.7,0,0,1-1-.3.8.8,0,0,1,.3-1A.7.7,0,0,1,55.9,176.7Z" style="fill:#fff"/><path d="M25.9,151.4a.8.8,0,0,1-.3,1.1,1,1,0,0,1-1.2-.3.8.8,0,0,1,.4-1.1A.7.7,0,0,1,25.9,151.4Z" style="fill:#fff"/><path d="M45.4,183.3a1,1,0,0,1-.3,1,.9.9,0,0,1-1-.3.8.8,0,0,1,.3-1A.8.8,0,0,1,45.4,183.3Z" style="fill:#fff"/><path d="M31.6,232.8a.8.8,0,0,1-.3.9.7.7,0,0,1-.8-.3.7.7,0,0,1,.3-.8A.5.5,0,0,1,31.6,232.8Z" style="fill:#fff"/><path d="M50.5,290.8a.7.7,0,0,1-.2.9.8.8,0,0,1-1-.2.8.8,0,0,1,.3-1A.8.8,0,0,1,50.5,290.8Z" style="fill:#fff"/><path d="M100.1,238.7a.8.8,0,0,1-.4,1.1.8.8,0,0,1-.8-1.4A1,1,0,0,1,100.1,238.7Z" style="fill:#fff"/><path d="M31.5,281.9a1,1,0,0,1-.2.9.8.8,0,0,1-.9-.3.7.7,0,0,1,.3-.8A.5.5,0,0,1,31.5,281.9Z" style="fill:#fff"/><path d="M18.1,297.5a.6.6,0,0,1-.3.8.5.5,0,0,1-.8-.2.7.7,0,0,1,.2-.9A.8.8,0,0,1,18.1,297.5Z" style="fill:#fff"/><path d="M44.8,339.8a.9.9,0,0,1-.4,1.2,1,1,0,0,1-1.3-.3,1,1,0,0,1,.4-1.3A.9.9,0,0,1,44.8,339.8Z" style="fill:#fff"/><path d="M63.4,341.1a1,1,0,0,1-.4,1.4.9.9,0,0,1-1.3-.4,1,1,0,1,1,1.7-1Z" style="fill:#fff"/><path d="M154.2,295.9a1.3,1.3,0,1,1-2.3,1.3,1.3,1.3,0,1,1,2.3-1.3Z" style="fill:#fff"/><path d="M155.4,253.9a1.3,1.3,0,0,1-2.2,1.2,1.2,1.2,0,0,1,.4-1.7A1.4,1.4,0,0,1,155.4,253.9Z" style="fill:#fff"/><path d="M128,203.8a1,1,0,0,1-.4,1.4,1.1,1.1,0,0,1-1.5-.4,1.1,1.1,0,0,1,1.9-1Z" style="fill:#fff"/><path d="M110.8,161.8a1,1,0,0,1-.4,1.4,1,1,0,0,1-1-1.8A1,1,0,0,1,110.8,161.8Z" style="fill:#fff"/><path d="M93.3,124.7a1.2,1.2,0,0,1-.4,1.7,1.3,1.3,0,0,1-1.2-2.2A1.2,1.2,0,0,1,93.3,124.7Z" style="fill:#fff"/><path d="M70.5,96.5a1.3,1.3,0,0,1-.5,1.8,1.3,1.3,0,0,1-1.9-.5,1.4,1.4,0,0,1,.5-1.9A1.5,1.5,0,0,1,70.5,96.5Z" style="fill:#fff"/><path d="M28.1,99.7a1.3,1.3,0,0,1-.5,1.7,1.4,1.4,0,0,1-1.8-.5,1.3,1.3,0,0,1,.5-1.7A1.2,1.2,0,0,1,28.1,99.7Z" style="fill:#fff"/><path d="M14.4,96.1a1.3,1.3,0,0,1-.5,1.8,1.4,1.4,0,0,1-1.8-.5,1.4,1.4,0,0,1,.5-1.8A1.2,1.2,0,0,1,14.4,96.1Z" style="fill:#fff"/><path d="M23.5,133.3a.9.9,0,0,1-.4,1.3,1,1,0,0,1-1.3-.4,1.1,1.1,0,0,1,.4-1.3A1,1,0,0,1,23.5,133.3Z" style="fill:#fff"/><path d="M23,239.5a.7.7,0,0,1-.2.8.7.7,0,0,1-.9-.2.6.6,0,0,1,.3-.8A.5.5,0,0,1,23,239.5Z" style="fill:#fff"/><path d="M34.2,298.5a.7.7,0,0,1-.3.9.7.7,0,0,1-.9-.2c-.1-.4,0-.8.3-.9A.7.7,0,0,1,34.2,298.5Z" style="fill:#fff"/><path d="M40.8,309.1a.6.6,0,0,1-.3.9.7.7,0,1,1-.7-1.2A.7.7,0,0,1,40.8,309.1Z" style="fill:#fff"/><path d="M33.9,244.1a.5.5,0,0,1-.2.8.6.6,0,1,1,.2-.8Z" style="fill:#fff"/><path d="M50.9,242.8a.7.7,0,0,1-.2.9.8.8,0,0,1-.9-.3.6.6,0,0,1,.3-.8A.5.5,0,0,1,50.9,242.8Z" style="fill:#fff"/><path d="M79.5,263a.8.8,0,0,1-.3,1,.7.7,0,0,1-1-.3.7.7,0,0,1,.3-1A1,1,0,0,1,79.5,263Z" style="fill:#fff"/><path d="M100.6,264.9a.8.8,0,1,1-1.1-.3A.7.7,0,0,1,100.6,264.9Z" style="fill:#fff"/><path d="M13.4,216.2a.7.7,0,0,1-.2.9.8.8,0,0,1-.9-.3.5.5,0,0,1,.2-.8C12.9,215.8,13.3,215.9,13.4,216.2Z" style="fill:#fff"/><path d="M69.8,191.3a.7.7,0,0,1-.3,1,.8.8,0,0,1-1-.3.8.8,0,0,1,.3-1A.7.7,0,0,1,69.8,191.3Z" style="fill:#fff"/><path d="M113.9,231.4a1,1,0,0,1-.4,1.2.8.8,0,0,1-1.2-.3,1,1,0,0,1,.3-1.3A1,1,0,0,1,113.9,231.4Z" style="fill:#fff"/><path d="M133.6,267.5a1.1,1.1,0,1,1-1.9,1.1,1.1,1.1,0,0,1,1.9-1.1Z" style="fill:#fff"/></g><g style="mix-blend-mode:overlay"><path d="M33.3,10.7a.7.7,0,0,1-.2.9.8.8,0,0,1-.9-.3.7.7,0,0,1,.3-.8A.5.5,0,0,1,33.3,10.7Z" style="fill:#fff"/><path d="M52.2,68.7a.7.7,0,0,1-.2.9.8.8,0,0,1-1-.2.9.9,0,0,1,.3-1C51.6,68.3,52.1,68.4,52.2,68.7Z" style="fill:#fff"/><path d="M101.8,16.6a.8.8,0,0,1-.3,1.1,1,1,0,0,1-1.2-.3.8.8,0,0,1,.4-1.1A.7.7,0,0,1,101.8,16.6Z" style="fill:#fff"/><path d="M33.2,59.8a.6.6,0,1,1-1,.6.6.6,0,1,1,1-.6Z" style="fill:#fff"/><path d="M19.8,75.4a.7.7,0,0,1-.3.8.5.5,0,0,1-.8-.2.7.7,0,0,1,.2-.9A.7.7,0,0,1,19.8,75.4Z" style="fill:#fff"/><path d="M46.5,117.6a1,1,0,0,1-.4,1.3.8.8,0,0,1-1.2-.4.8.8,0,0,1,.3-1.2A1,1,0,0,1,46.5,117.6Z" style="fill:#fff"/><path d="M65.1,119a1,1,0,1,1-1.3-.4A1,1,0,0,1,65.1,119Z" style="fill:#fff"/><path d="M156,73.8a1.3,1.3,0,0,1-.6,1.8,1.2,1.2,0,0,1-1.8-.5,1.4,1.4,0,0,1,.5-1.9A1.5,1.5,0,0,1,156,73.8Z" style="fill:#fff"/><path d="M157.1,31.8a1.3,1.3,0,1,1-2.2,1.2,1.2,1.2,0,0,1,.5-1.7A1.3,1.3,0,0,1,157.1,31.8Z" style="fill:#fff"/><path d="M24.7,17.4a.6.6,0,1,1-.8-.2A.5.5,0,0,1,24.7,17.4Z" style="fill:#fff"/><path d="M35.9,76.4a.6.6,0,0,1-.3.9.5.5,0,0,1-.8-.2c-.2-.4-.1-.8.2-.9A.7.7,0,0,1,35.9,76.4Z" style="fill:#fff"/><path d="M42.5,87a.6.6,0,0,1-.3.9.7.7,0,1,1-.7-1.2A.7.7,0,0,1,42.5,87Z" style="fill:#fff"/><path d="M35.6,22a.6.6,0,0,1-1,.6.6.6,0,0,1,1-.6Z" style="fill:#fff"/><path d="M52.6,20.7a.7.7,0,0,1-.2.9.6.6,0,0,1-.8-.3.6.6,0,0,1,1-.6Z" style="fill:#fff"/><path d="M81.2,40.9a.7.7,0,0,1-.3,1,.7.7,0,1,1-.7-1.3A.8.8,0,0,1,81.2,40.9Z" style="fill:#fff"/><path d="M102.4,42.8a.8.8,0,0,1-.4,1.1.8.8,0,1,1-.8-1.4A.9.9,0,0,1,102.4,42.8Z" style="fill:#fff"/><path d="M115.6,9.3a.9.9,0,0,1-1.6.8.9.9,0,0,1,.3-1.2A1,1,0,0,1,115.6,9.3Z" style="fill:#fff"/><path d="M135.3,45.4a1.1,1.1,0,1,1-1.9,1.1,1.1,1.1,0,0,1,.5-1.5A1,1,0,0,1,135.3,45.4Z" style="fill:#fff"/></g><g style="mix-blend-mode:overlay"><path d="M210.2,28.4a1.3,1.3,0,1,1-1.7-.5A1.1,1.1,0,0,1,210.2,28.4Z" style="fill:#fff"/><path d="M230.5,63.6a.9.9,0,0,1-.4,1.3.9.9,0,0,1-1.3-.4,1,1,0,0,1,1.7-.9Z" style="fill:#fff"/><path d="M234.6,71.5a1,1,0,0,1-.3,1.3,1,1,0,0,1-1.3-.4.9.9,0,0,1,.4-1.3A1,1,0,0,1,234.6,71.5Z" style="fill:#fff"/><path d="M216.9,96.4a1,1,0,0,1-.4,1.4,1,1,0,1,1-1-1.8A1,1,0,0,1,216.9,96.4Z" style="fill:#fff"/><path d="M343.6,43.4a.7.7,0,1,1-1.3.7.7.7,0,0,1,1.3-.7Z" style="fill:#fff"/><path d="M266.7,104.9a.7.7,0,0,1-1.3.7.9.9,0,0,1,.3-1A.8.8,0,0,1,266.7,104.9Z" style="fill:#fff"/><path d="M257.2,110.8a.7.7,0,0,1-.3,1,.8.8,0,0,1-1-.3.8.8,0,0,1,.3-1A.7.7,0,0,1,257.2,110.8Z" style="fill:#fff"/><path d="M313.5,18.1a.8.8,0,1,1-1.4.8.8.8,0,0,1,1.4-.8Z" style="fill:#fff"/><circle cx="254.6" cy="5.1" r="1.1" transform="translate(2.8 42.9) rotate(-9.7)" style="fill:#fff"/><path d="M276.6,26.3a1,1,0,0,1-.4,1.2.9.9,0,0,1-1.2-.4.9.9,0,0,1,.3-1.2A1,1,0,0,1,276.6,26.3Z" style="fill:#fff"/><path d="M333,50a.7.7,0,1,1-1.2.7.7.7,0,0,1,.3-1A.8.8,0,0,1,333,50Z" style="fill:#fff"/><path d="M319.2,99.6a.6.6,0,0,1-.2.8.6.6,0,0,1-.8-.3.6.6,0,0,1,.2-.8A.6.6,0,0,1,319.2,99.6Z" style="fill:#fff"/><path d="M338.2,157.5c.1.3,0,.8-.3.9a.7.7,0,0,1-.9-.2.6.6,0,0,1,.2-.9A.8.8,0,0,1,338.2,157.5Z" style="fill:#fff"/><path d="M387.7,105.4a.8.8,0,1,1-1.1-.3A.8.8,0,0,1,387.7,105.4Z" style="fill:#fff"/><path d="M319.1,148.7a.6.6,0,0,1-.2.8.6.6,0,0,1-.8-.3.5.5,0,0,1,.2-.8A.6.6,0,0,1,319.1,148.7Z" style="fill:#fff"/><path d="M305.7,164.2a.5.5,0,0,1-.2.8.7.7,0,0,1-.9-.2.7.7,0,0,1,.3-.9A.7.7,0,0,1,305.7,164.2Z" style="fill:#fff"/><path d="M255.7,161.9a.8.8,0,1,1-1.5.7c-.2-.3,0-.8.4-1.1S255.4,161.5,255.7,161.9Z" style="fill:#fff"/><path d="M276.2,188.3a.8.8,0,0,1-.3,1.1.9.9,0,0,1-1.2-.3.8.8,0,0,1,.3-1.1A.8.8,0,0,1,276.2,188.3Z" style="fill:#fff"/><path d="M332.4,206.5a.8.8,0,0,1-.3,1.2.9.9,0,0,1-1.3-.3.9.9,0,1,1,1.6-.9Z" style="fill:#fff"/><path d="M351.1,207.8a1.1,1.1,0,0,1-.4,1.4,1,1,0,0,1-1.4-.4,1,1,0,0,1,.4-1.3A1.1,1.1,0,0,1,351.1,207.8Z" style="fill:#fff"/><path d="M441.9,162.6a1.3,1.3,0,0,1-.5,1.8,1.3,1.3,0,0,1-1.9-.5,1.3,1.3,0,0,1,.5-1.8A1.3,1.3,0,0,1,441.9,162.6Z" style="fill:#fff"/><path d="M443,120.6a1.3,1.3,0,0,1-2.2,1.2,1.3,1.3,0,0,1,.5-1.7A1.3,1.3,0,0,1,443,120.6Z" style="fill:#fff"/><path d="M415.6,70.5a1,1,0,0,1-.4,1.4,1,1,0,1,1,.4-1.4Z" style="fill:#fff"/><path d="M398.5,28.5a1.1,1.1,0,0,1-.4,1.5,1.2,1.2,0,0,1-1.5-.5,1,1,0,0,1,.4-1.4A1.1,1.1,0,0,1,398.5,28.5Z" style="fill:#fff"/><path d="M311.2,0a1,1,0,0,1-.4,1.3,1,1,0,0,1-1.3-.4.9.9,0,0,1,.4-1.3A1,1,0,0,1,311.2,0Z" style="fill:#fff"/><path d="M310.6,106.2a.5.5,0,0,1-.2.8.6.6,0,1,1-.6-1A.5.5,0,0,1,310.6,106.2Z" style="fill:#fff"/><path d="M285.2,127.6a.5.5,0,0,1-.2.8.7.7,0,0,1-.9-.2.6.6,0,0,1,.3-.8A.5.5,0,0,1,285.2,127.6Z" style="fill:#fff"/><path d="M321.8,165.2c.2.4.1.8-.2.9a.7.7,0,1,1-.7-1.1C321.3,164.8,321.7,164.9,321.8,165.2Z" style="fill:#fff"/><path d="M328.4,175.8a.7.7,0,1,1-1.2.7.7.7,0,0,1,.3-1A.6.6,0,0,1,328.4,175.8Z" style="fill:#fff"/><path d="M321.6,110.8a.6.6,0,0,1-.3.8.5.5,0,0,1-.8-.2.6.6,0,0,1,.3-.8A.6.6,0,0,1,321.6,110.8Z" style="fill:#fff"/><path d="M338.6,109.5a.8.8,0,0,1-.3.9.7.7,0,0,1-.8-.3.5.5,0,0,1,.2-.8A.7.7,0,0,1,338.6,109.5Z" style="fill:#fff"/><path d="M367.1,129.7a.7.7,0,0,1-.3,1,.7.7,0,1,1-.7-1.2A.8.8,0,0,1,367.1,129.7Z" style="fill:#fff"/><path d="M388.3,131.6a1,1,0,0,1-.3,1.2.9.9,0,0,1-1.2-.4.8.8,0,0,1,.3-1.1A.8.8,0,0,1,388.3,131.6Z" style="fill:#fff"/><path d="M301.1,82.9a.8.8,0,0,1-.3.9.6.6,0,0,1-.8-.3.5.5,0,0,1,.2-.8A.7.7,0,0,1,301.1,82.9Z" style="fill:#fff"/><path d="M285.8,64.2a.7.7,0,0,1-.3.9.8.8,0,0,1-1-.2.7.7,0,0,1,.3-1A.7.7,0,0,1,285.8,64.2Z" style="fill:#fff"/><path d="M274.9,64.1a.8.8,0,1,1-1-.3A.8.8,0,0,1,274.9,64.1Z" style="fill:#fff"/><path d="M357.5,58a.8.8,0,0,1-.3,1,.7.7,0,0,1-.7-1.3A.7.7,0,0,1,357.5,58Z" style="fill:#fff"/><path d="M401.5,98.1a.8.8,0,0,1-.3,1.2,1,1,0,0,1-1.3-.3,1,1,0,0,1,.4-1.3A.9.9,0,0,1,401.5,98.1Z" style="fill:#fff"/><path d="M421.3,134.2a1.1,1.1,0,0,1-.5,1.5,1,1,0,0,1-1.4-.4,1.1,1.1,0,1,1,1.9-1.1Z" style="fill:#fff"/></g><g style="mix-blend-mode:overlay"><path d="M416.5,18.6a.9.9,0,0,1-.4,1.3.9.9,0,0,1-1.3-.4,1,1,0,0,1,1.7-.9Z" style="fill:#fff"/><path d="M420.6,26.5a1,1,0,0,1-.3,1.3,1,1,0,0,1-1.3-.4.9.9,0,0,1,.4-1.3A1,1,0,0,1,420.6,26.5Z" style="fill:#fff"/><path d="M402.9,51.4a1,1,0,0,1-.4,1.4,1,1,0,1,1-1-1.8A1,1,0,0,1,402.9,51.4Z" style="fill:#fff"/><path d="M452.7,59.9a.7.7,0,1,1-1.3.7.9.9,0,0,1,.3-1A.8.8,0,0,1,452.7,59.9Z" style="fill:#fff"/><path d="M443.2,65.8a.7.7,0,0,1-.3,1,.8.8,0,0,1-1-.3.8.8,0,0,1,.3-1A.7.7,0,0,1,443.2,65.8Z" style="fill:#fff"/><path d="M491.7,119.2a.5.5,0,0,1-.2.8.7.7,0,0,1-.9-.2.7.7,0,0,1,.3-.9A.7.7,0,0,1,491.7,119.2Z" style="fill:#fff"/><path d="M441.7,116.9a.8.8,0,1,1-1.5.7c-.2-.3,0-.8.4-1.1S441.4,116.5,441.7,116.9Z" style="fill:#fff"/><path d="M462.2,143.3a.8.8,0,0,1-.3,1.1.9.9,0,0,1-1.2-.3.8.8,0,0,1,.3-1.1A.8.8,0,0,1,462.2,143.3Z" style="fill:#fff"/><path d="M496.6,61.2a.5.5,0,0,1-.2.8.6.6,0,1,1-.6-1A.5.5,0,0,1,496.6,61.2Z" style="fill:#fff"/><path d="M471.2,82.6a.5.5,0,0,1-.2.8.7.7,0,0,1-.9-.2.6.6,0,0,1,.3-.8A.5.5,0,0,1,471.2,82.6Z" style="fill:#fff"/><path d="M487.1,37.9a.8.8,0,0,1-.3.9.6.6,0,0,1-.8-.3.5.5,0,0,1,.2-.8A.7.7,0,0,1,487.1,37.9Z" style="fill:#fff"/><path d="M471.8,19.2a.7.7,0,0,1-.3.9.8.8,0,0,1-1-.2.7.7,0,0,1,.3-1A.7.7,0,0,1,471.8,19.2Z" style="fill:#fff"/><path d="M460.9,19.1a.8.8,0,1,1-1-.3A.8.8,0,0,1,460.9,19.1Z" style="fill:#fff"/></g><g style="opacity:0.24;mix-blend-mode:screen"></g><g style="opacity:0.12;mix-blend-mode:screen"></g><g style="opacity:0.35000000000000003;mix-blend-mode:screen"></g><g style="opacity:0.32;mix-blend-mode:multiply"></g><g style="opacity:0.4;mix-blend-mode:multiply"></g><g style="opacity:0.21;mix-blend-mode:multiply"></g><g style="opacity:0.14;mix-blend-mode:multiply"></g><ellipse cx="99.3" cy="96.9" rx="131.2" ry="66.9" transform="translate(-38.7 82.7) rotate(-38.4)" style="opacity:0.38;mix-blend-mode:overlay;fill:url(#c)"/><ellipse cx="409.8" cy="204.3" rx="131.2" ry="66.9" transform="translate(-38.2 299) rotate(-38.4)" style="opacity:0.38;mix-blend-mode:overlay;fill:url(#d)"/><g style="opacity:0.8200000000000001"><g style="opacity:0.66"></g><circle cx="253.7" cy="357.2" r="118.8" transform="translate(-178.3 284) rotate(-45)" style="fill:#fff"/></g><rect x="216.9" y="301.5" width="0.4" height="31.28" style="fill:#292c59"/><path d="M613.9,512.7V476.1l-3.4-7.4v0l-3.4,7.4v3.2h0l-1.2.8V461.5h-5.5V414.6H586v27.9l-2.5-2.6V395.6h-2.8V378.3h-2v-9.9h-2v-3.5h-2.8v-5.4h-5.3l-6.2-26.8-6.7,26.8H551v5.4h-2.6v3.5h-1.5v9.9h-2.6v17.3h-2.2v49.7l-3,3.3V411.5H524.6v50h-3V444.1h-6.8V407.9l-1.7-5.5-2,4.8V378.8l-8-18.6-8.8,18.6V407l-1.4-4.6L491,407v-1.5H479.8v2.9l-2.9-2.8-10.3,9.8V391.3h-9.8v33.4l-6.3,6v1.6a7.1,7.1,0,0,0-4.2,4.6h-5.1V443l-4.4-3.5V417.2H425.3v26l-4.3,3.4V393.3H410.4v18.5a12.9,12.9,0,0,0-18.6-3.9V378.7h-16v77.5h-6.6V391.7h-5.9v-4h-1.7v.4h-1.1v-.4h-1.8v.4h-1.1v-.4h-1.8v.4h-1.1v-.4H353v.4h-.1v-8.7H355v-.2h-2.1v-3.1H355v-.3h-2.1v-3.1H355v-.2h-2.1v-3.1H355v-.3h-2.1V366H355v-.2h-2.1v-3.1H355v-.3h-2.1v-3.1H355v-.2h-2.1V356H355v-.3h-2.1v-7.3h-2v7.3h-2.2v.3h2.2v3.1h-2.2v.2h2.2v3.1h-2.2v.3h2.2v3.1h-2.2v.2h2.2v3.1h-2.2v.3h2.2v3.1h-2.2v.2h2.2v3.1h-2.2v.3h2.2v3.1h-2.2v.2h2.2v8.3h-.8v.4H349v-.4h-1.8v.4h-1.1v-.4h-1.8v4h-1.1v-4h-1.8v4h-5.5V377H322.4v48.6l-17.3,14V363h-4.3V343h-3.1c0-2.5-1.7-4.6-4.2-6v-1.4a4,4,0,0,0-2.1-3.4v-1.3a2.7,2.7,0,0,0-1.9-2.3h.1L287.7,297l-1.4,31.4h0a2.7,2.7,0,0,0-2.1,2.4v1.1a4.3,4.3,0,0,0-2.4,3.6v1.6c-2.3,1.3-3.9,3.4-3.9,5.8h-5v20h-2.7v78.5h-7.6v32.1l-.9,1.9h-1.5v-14h-5.4V414.6H240.5v27.9l-2.6-2.6V395.6h-2.8V378.3h-2v-9.9h-1.9v-3.5h-2.9v-5.4H223l-6.1-26.8-6.7,26.8h-4.8v5.4h-2.5v3.5h-1.6v9.9h-2.5v17.3h-2.3v49.7l-2.9,3.3V411.5H179v50h-3V444.1h-6.8V407.9l-1.7-5.5-1.9,4.8V378.8l-8.1-18.6-8.8,18.6V407l-1.4-4.6-1.9,4.6v-1.5H134.3v2.9l-3-2.8-10.2,9.8V391.3h-9.9v33.4l-6.3,6v1.6a7.4,7.4,0,0,0-4.2,4.6H95.6V443l-4.4-3.5V417.2H79.7v26l-4.2,3.4V393.3H64.8v18.5a12.6,12.6,0,0,0-11-6.3,13,13,0,0,0-7.6,2.4V378.7H30.3v77.5H23.7V391.7H17.8v-4H16v.4H14.9v-.4H13.2v.4H12v-.4H10.3v.4H9.1v-.4H7.4v.4H7.3v-8.7H9.5v-.2H7.3v-3.1H9.5v-.3H7.3v-3.1H9.5v-.2H7.3v-3.1H9.5v-.3H7.3V366H9.5v-.2H7.3v-3.1H9.5v-.3H7.3v-3.1H9.5v-.2H7.3V356H9.5v-.3H7.3v-7.3h-2v7.3H3.2v.3H5.3v3.1H3.2v.2H5.3v3.1H3.2v.3H5.3v3.1H3.2v.2H5.3v3.1H3.2v.3H5.3v3.1H3.2v.2H5.3v3.1H3.2v.3H5.3v3.1H3.2v.2H5.3v8.3H4.5v.4H3.4v-.4H1.6v.4H.5v-.4H-1.2v4H-2.4v-4H-4.1v4H-9.7V377H-23.2v48.6l-17.2,14V363h-4.3V343h-3.2c0-2.5-1.6-4.6-4.1-6v-1.4a4.1,4.1,0,0,0-2.2-3.4v-1.3a2.8,2.8,0,0,0-1.8-2.3h.1l-2-31.5-1.3,31.4h0a2.6,2.6,0,0,0-2.1,2.4v1.1a4.1,4.1,0,0,0-2.4,3.6v1.6a6.7,6.7,0,0,0-3.9,5.8h-5v20h-2.7v78.5H-83v34h-4.6v6.7l-4.9-2.8v-3.3l-3.3-7.4-3.4,7.4v36.6h-36v9.6h36v11.3h6.7V522.3H20.8v11.3h7.4V522.3H141.5v11.3h6.9V522.3h97.9v11.3h6.8V522.3h8.3v11.3h6.9V522.3h98v11.3h7.5V522.3H487v11.3h6.9V522.3H607v11.3h6.9V522.3h35.8v-9.6Zm-703.8-1.4h-2.6V481.4l2.6,1.5Zm2.3,0H-89V483.4l1.4.7Zm181.6,0H91.2v-.2H94Zm1.6,0H95v-.2h.6Zm344,0h-2.8v-.2h2.8Zm1.6,0h-.7v-.2h.7Zm165.8,0h-1.2V482l1.2-.8Z" style="fill:#342959"/><rect x="276.4" y="371" width="3.6" height="1.17" style="fill:#fff;opacity:0.81"/><rect x="276.4" y="373.3" width="3.6" height="1.17" style="fill:#fff;opacity:0.81"/><rect x="276.4" y="375.6" width="3.6" height="1.17" style="fill:#fff;opacity:0.81"/><rect x="155.7" y="390.8" width="3.6" height="1.17" style="fill:#fff;opacity:0.81"/><rect x="155.7" y="393.1" width="3.6" height="1.17" style="fill:#fff;opacity:0.81"/><rect x="155.7" y="395.4" width="3.6" height="1.17" style="fill:#fff;opacity:0.81"/><rect x="128.2" y="423.5" width="3.6" height="1.17" style="fill:#fff;opacity:0.81"/><rect x="128.2" y="425.8" width="3.6" height="1.17" style="fill:#fff;opacity:0.81"/><rect x="128.2" y="428.1" width="3.6" height="1.17" style="fill:#fff;opacity:0.81"/><rect x="155.7" y="432.3" width="3.6" height="1.17" style="fill:#fff;opacity:0.81"/><rect x="155.7" y="434.6" width="3.6" height="1.17" style="fill:#fff;opacity:0.81"/><rect x="155.7" y="436.9" width="3.6" height="1.17" style="fill:#fff;opacity:0.81"/><rect x="205.5" y="422.3" width="3.6" height="1.17" style="fill:#fff;opacity:0.81"/><rect x="205.5" y="424.6" width="3.6" height="1.17" style="fill:#fff;opacity:0.81"/><rect x="205.5" y="426.9" width="3.6" height="1.17" style="fill:#fff;opacity:0.81"/><rect x="278.1" y="421.2" width="3.6" height="1.17" style="fill:#fff;opacity:0.81"/><rect x="278.1" y="423.5" width="3.6" height="1.17" style="fill:#fff;opacity:0.81"/><rect x="278.1" y="425.8" width="3.6" height="1.17" style="fill:#fff;opacity:0.81"/><rect x="354.6" y="434" width="3.6" height="1.17" style="fill:#fff;opacity:0.81"/><rect x="354.6" y="436.3" width="3.6" height="1.17" style="fill:#fff;opacity:0.81"/><rect x="354.6" y="438.6" width="3.6" height="1.17" style="fill:#fff;opacity:0.81"/><rect x="387.4" y="422.3" width="3.6" height="1.17" style="fill:#fff;opacity:0.81"/><rect x="387.4" y="424.6" width="3.6" height="1.17" style="fill:#fff;opacity:0.81"/><rect x="387.4" y="426.9" width="3.6" height="1.17" style="fill:#fff;opacity:0.81"/><rect x="403.8" y="434.6" width="3.6" height="1.17" style="fill:#fff;opacity:0.81"/><rect x="403.8" y="436.9" width="3.6" height="1.17" style="fill:#fff;opacity:0.81"/><rect x="403.8" y="439.2" width="3.6" height="1.17" style="fill:#fff;opacity:0.81"/><rect x="429" y="426.4" width="3.6" height="1.17" style="fill:#fff;opacity:0.81"/><rect x="429" y="428.7" width="3.6" height="1.17" style="fill:#fff;opacity:0.81"/><rect x="429" y="431" width="3.6" height="1.17" style="fill:#fff;opacity:0.81"/><rect x="464.7" y="431.1" width="3.6" height="1.17" style="fill:#fff;opacity:0.81"/><rect x="464.7" y="433.4" width="3.6" height="1.17" style="fill:#fff;opacity:0.81"/><rect x="464.7" y="435.7" width="3.6" height="1.17" style="fill:#fff;opacity:0.81"/><rect x="459.4" y="399" width="3.6" height="1.17" style="fill:#fff;opacity:0.81"/><rect x="459.4" y="401.3" width="3.6" height="1.17" style="fill:#fff;opacity:0.81"/><rect x="459.4" y="403.6" width="3.6" height="1.17" style="fill:#fff;opacity:0.81"/><rect x="492.8" y="417.8" width="3.6" height="1.17" style="fill:#fff;opacity:0.81"/><rect x="492.8" y="420.1" width="3.6" height="1.17" style="fill:#fff;opacity:0.81"/><rect x="492.8" y="422.3" width="3.6" height="1.17" style="fill:#fff;opacity:0.81"/><rect x="66.1" y="420.6" width="3.6" height="1.17" style="fill:#fff;opacity:0.81"/><rect x="66.1" y="422.9" width="3.6" height="1.17" style="fill:#fff;opacity:0.81"/><rect x="66.1" y="425.2" width="3.6" height="1.17" style="fill:#fff;opacity:0.81"/><rect x="46.8" y="432.9" width="3.6" height="1.17" style="fill:#fff;opacity:0.81"/><rect x="46.8" y="435.2" width="3.6" height="1.17" style="fill:#fff;opacity:0.81"/><rect x="46.8" y="437.4" width="3.6" height="1.17" style="fill:#fff;opacity:0.81"/><rect x="36.8" y="420.1" width="3.6" height="1.17" style="fill:#fff;opacity:0.81"/><rect x="36.8" y="422.3" width="3.6" height="1.17" style="fill:#fff;opacity:0.81"/><rect x="36.8" y="424.6" width="3.6" height="1.17" style="fill:#fff;opacity:0.81"/><rect x="11.7" y="400.7" width="3.6" height="1.17" style="fill:#fff;opacity:0.81"/><rect x="11.7" y="403" width="3.6" height="1.17" style="fill:#fff;opacity:0.81"/><rect x="11.7" y="405.3" width="3.6" height="1.17" style="fill:#fff;opacity:0.81"/><rect x="220.4" y="383.8" width="3.6" height="1.17" style="fill:#fff;opacity:0.81"/><rect x="220.4" y="386.1" width="3.6" height="1.17" style="fill:#fff;opacity:0.81"/><rect x="220.4" y="388.3" width="3.6" height="1.17" style="fill:#fff;opacity:0.81"/><rect x="358.2" y="402.4" width="3.6" height="1.17" style="fill:#fff;opacity:0.81"/><rect x="358.2" y="404.7" width="3.6" height="1.17" style="fill:#fff;opacity:0.81"/><rect x="358.2" y="407" width="3.6" height="1.17" style="fill:#fff;opacity:0.81"/><rect x="335.4" y="412.4" width="3.6" height="1.17" style="fill:#fff;opacity:0.81"/><rect x="335.4" y="414.7" width="3.6" height="1.17" style="fill:#fff;opacity:0.81"/><rect x="335.4" y="417" width="3.6" height="1.17" style="fill:#fff;opacity:0.81"/><rect x="293.7" y="393.7" width="3.6" height="1.17" style="fill:#fff;opacity:0.81"/><rect x="293.7" y="396" width="3.6" height="1.17" style="fill:#fff;opacity:0.81"/><rect x="293.7" y="398.3" width="3.6" height="1.17" style="fill:#fff;opacity:0.81"/><g style="opacity:0.49"></g><path d="M256.6,138.1a1.6,1.6,0,0,1-1.2,1.8,1.5,1.5,0,0,1-1.9-1.2,1.6,1.6,0,1,1,3.1-.6Z" style="opacity:0.87;mix-blend-mode:screen;fill:url(#e)"/><path d="M253.5,138s-24.7,5.6-30.2,7.8c0,0,29-6.7,30.5-6.4v-.3a.9.9,0,0,1-.2-.9Z" style="opacity:0.51;mix-blend-mode:screen;fill:url(#f)"/><g style="opacity:0.49"></g><path d="M159.9,198.3a2.4,2.4,0,0,1-1.9,2.8,2.3,2.3,0,0,1-2.8-1.8,2.4,2.4,0,0,1,1.8-2.9A2.6,2.6,0,0,1,159.9,198.3Z" style="opacity:0.87;mix-blend-mode:screen;fill:url(#g)"/><path d="M155.2,198.2s-37.7,8.5-46.1,12c0,0,44.3-10.2,46.6-9.9l-.3-.3a1.7,1.7,0,0,1-.3-1.4Z" style="opacity:0.51;mix-blend-mode:screen;fill:url(#h)"/><g style="opacity:0.49"></g><path d="M356.5,199a2.1,2.1,0,0,1-1.5,2.4,2.1,2.1,0,0,1-2.4-1.6,2,2,0,0,1,1.5-2.4A2.1,2.1,0,0,1,356.5,199Z" style="opacity:0.87;mix-blend-mode:screen;fill:url(#i)"/><path d="M352.6,198.9s-31.5,7.1-38.6,10c0,0,37.1-8.5,39-8.2l-.2-.3a1.4,1.4,0,0,1-.3-1.2Z" style="opacity:0.51;mix-blend-mode:screen;fill:url(#j)"/><g style="opacity:0.6000000000000001"><path d="M398.6-7.6a13.5,13.5,0,0,0-4.7-2.2,17,17,0,0,0,1-4.7,15.9,15.9,0,0,0-3-10.5,16,16,0,0,0-12.1-6.7,15.9,15.9,0,0,0-5.8.6,16.3,16.3,0,0,0-10.7,10.4l-.3,1.4-.6-.8-1.3-1.5a8.6,8.6,0,0,0-1.4-1.3A18.2,18.2,0,0,0,349.6-27h-1.5a20.3,20.3,0,0,0-4.3.6,17.5,17.5,0,0,0-2-4.7,15.9,15.9,0,0,0-12.7-7.6h-1.3a14.3,14.3,0,0,0-5,.9l-2.2.9a16.1,16.1,0,0,0-3,2.1,2.4,2.4,0,0,0-.9.8,14.6,14.6,0,0,0-3.5,5,12,12,0,0,0-6.9-2.9,11.6,11.6,0,0,0-12.2,10.3,26.6,26.6,0,0,0-7.5,9.1h-2.8l-.6.2h-.5l-.6.2-.5.3-.5.2-.5.3-.4.2-.6.4-.3.2-.6.5-.2.2-.6.6h-.1A13.9,13.9,0,0,0,275-4.5a14.3,14.3,0,0,0-3.9,9,14.4,14.4,0,0,0,13.4,15.3H286a14.6,14.6,0,0,0,12.4,8.9,13.1,13.1,0,0,0,5.3-.7,16.3,16.3,0,0,0,29.6,2.2l1.4.2a16.7,16.7,0,0,0,11.4-3.7,16.3,16.3,0,0,0,9.2,4.9,15.8,15.8,0,0,0,13.3-3.7,14.5,14.5,0,0,0,7.1,2.2A16.2,16.2,0,0,0,393,15V13.1a12.2,12.2,0,0,0,5.5-2.3,9.3,9.3,0,0,0,8-8.6A9.2,9.2,0,0,0,398.6-7.6Z" style="fill:#b9e1ef;opacity:0.58"/><path d="M94.1,89.4c-.1-.1-.1-.2-.2-.2h0l-.3-.5h-.1l-.3-.4h-.1l-.3-.2a7.7,7.7,0,0,0-7.1-4.6,8.2,8.2,0,0,0-3.5.8l-1.3-.5a12.2,12.2,0,0,0-10-6.4,9.5,9.5,0,0,0-8.3-1.1,7.4,7.4,0,0,0-1.2-1.3,1.5,1.5,0,0,0,.1-.7v-1A15.6,15.6,0,0,0,45.9,57.6a16.1,16.1,0,0,0-4.4.6c-.1-.5-.1-1-.2-1.4A15.7,15.7,0,0,0,26,44.4a16,16,0,0,0-11.3,4.8A22.9,22.9,0,0,0,10.4,46L8.5,45l-2-.8a24.4,24.4,0,0,0-7.7-1.3,23.1,23.1,0,0,0-14.3,4.9,23.5,23.5,0,0,0-8.2,12.4h-1.7l-2.2.2-1.1.2A13.4,13.4,0,0,0-32.8,62,15.3,15.3,0,0,0-37,65.4a10.9,10.9,0,0,0-1.3,1.7,8.7,8.7,0,0,0-1.1,1.8,9.7,9.7,0,0,0-3.4-.6h-.9a9.6,9.6,0,0,0-7.9,5.4,11,11,0,0,0-4.8,1.7h-1.1a9.8,9.8,0,0,0-9.2,6.2,1.4,1.4,0,0,1-.2.6,6.3,6.3,0,0,0-2.2.7h-.6a9.9,9.9,0,0,0-3,.5A9.5,9.5,0,0,0-77.4,82a9.7,9.7,0,0,0-9.7,9.7v1a6.8,6.8,0,0,0,1.3,3.9,9.7,9.7,0,0,0,8.4,4.8h.1a6,6,0,0,0,6,4.9,6.1,6.1,0,0,0,6-4.9h1.4a9.8,9.8,0,0,0,8.5,4.8,9.1,9.1,0,0,0,4.1-.9,9.2,9.2,0,0,0,2.8-.9,9.5,9.5,0,0,0,8.3,4.7,9.8,9.8,0,0,0,8.1-4.2,10.5,10.5,0,0,0,4.4,1,10.2,10.2,0,0,0,7.7-3.7,9.7,9.7,0,0,0,9.6,8.1,10.5,10.5,0,0,0,3.6-.6A23.1,23.1,0,0,0,9.3,116a23,23,0,0,0,18.6-9.3,12.5,12.5,0,0,0,5,1.1,12,12,0,0,0,7.4-2.5A9.6,9.6,0,0,0,53,108.1a12.2,12.2,0,0,0,18.4-5.7l.6-.9h.7a9.9,9.9,0,0,0,12.8-2.3h.8a5.9,5.9,0,0,0,2.3.4l1.9-.2a5.4,5.4,0,1,0,3.6-9.9Z" style="fill:#b9e1ef;opacity:0.58"/><path d="M588.1,193.4c0-.1-.1-.1-.1-.2h0l-.4-.4h0l-.4-.4h-.1l-.2-.2a8,8,0,0,0-7.1-4.6,6.8,6.8,0,0,0-3.5.9l-1.3-.6a12.4,12.4,0,0,0-10-6.4,10,10,0,0,0-5.4-1.5,10.3,10.3,0,0,0-3,.4l-1.1-1.2a1.5,1.5,0,0,1,.1-.7v-1a15.7,15.7,0,0,0-15.7-15.7,14.9,14.9,0,0,0-4.3.6l-.3-1.4a15.7,15.7,0,0,0-26.5-7.6,22.9,22.9,0,0,0-4.3-3.2l-1.9-.9-2-.9a24.4,24.4,0,0,0-7.7-1.3,23,23,0,0,0-14.3,5,23.4,23.4,0,0,0-8.3,12.3h-1.6l-2.3.2-1.1.2a15.9,15.9,0,0,0-4.1,1.6,15,15,0,0,0-4.2,3.3,10.9,10.9,0,0,0-1.3,1.7,11.8,11.8,0,0,0-1.1,1.9,9.3,9.3,0,0,0-3.4-.6h-.9a9.8,9.8,0,0,0-7.9,5.5,11.9,11.9,0,0,0-4.8,1.6h-1.1a9.8,9.8,0,0,0-9.1,6.2c-.1.2-.1.4-.2.6l-2.2.7h-.7a9.2,9.2,0,0,0-2.9.4,9.5,9.5,0,0,0-4.8-1.2,9.7,9.7,0,0,0-9.7,9.7v.4c0,.2-.1.3-.1.5a6,6,0,0,0,1.4,3.9,9.5,9.5,0,0,0,8.3,4.8h.1a6.2,6.2,0,0,0,12.1.1h1.4a9.8,9.8,0,0,0,8.4,4.9,10,10,0,0,0,4.2-1,7.7,7.7,0,0,0,2.7-.8,10,10,0,0,0,8.4,4.7,9.8,9.8,0,0,0,8.1-4.3,9.1,9.1,0,0,0,4.3,1,9.7,9.7,0,0,0,7.7-3.7,9.9,9.9,0,0,0,9.7,8.2,10.4,10.4,0,0,0,3.5-.7,23.3,23.3,0,0,0,34.8-2.8,11.8,11.8,0,0,0,5,1.1,12.1,12.1,0,0,0,7.3-2.5,10,10,0,0,0,8,4,10.6,10.6,0,0,0,4.7-1.2,12.1,12.1,0,0,0,7,2.2,12.3,12.3,0,0,0,11.5-7.9,4.1,4.1,0,0,0,.5-.9l.8-.2a9.8,9.8,0,0,0,5.1,1.5,9.6,9.6,0,0,0,7.6-3.8h.8a6.9,6.9,0,0,0,2.4.5,6.3,6.3,0,0,0,1.9-.3,5.1,5.1,0,0,0,3,1,5.5,5.5,0,0,0,.5-10.9Z" style="fill:#b9e1ef;opacity:0.58"/><path d="M309.1,133.9c-.1-.1-.1-.1-.1-.2h0l-.3-.3h0l-.3-.2h-.1v-.2a6,6,0,0,0-5.4-3.4,5.8,5.8,0,0,0-2.6.6l-1-.4a9,9,0,0,0-7.4-4.8,8.1,8.1,0,0,0-4-1.2,8.5,8.5,0,0,0-2.3.4l-.8-.9v-1.3A11.7,11.7,0,0,0,273,110.1a12.4,12.4,0,0,0-3.3.4c0-.3-.1-.7-.1-1a11.9,11.9,0,0,0-11.5-9.3,11.6,11.6,0,0,0-8.4,3.6,19.1,19.1,0,0,0-3.2-2.4l-1.4-.7-1.5-.6a16.1,16.1,0,0,0-5.8-1A17.7,17.7,0,0,0,220.9,112h-3.7a16.6,16.6,0,0,0-3.1,1.2,10.7,10.7,0,0,0-3.1,2.5,11.9,11.9,0,0,0-1.8,2.7,7.5,7.5,0,0,0-2.6-.5h-.7a7.6,7.6,0,0,0-5.9,4.1,8.2,8.2,0,0,0-3.5,1.3h-.9a7.3,7.3,0,0,0-6.8,4.6l-.2.5-1.6.5h-.5a7.8,7.8,0,0,0-2.2.3,7.4,7.4,0,0,0-3.6-.9,7.2,7.2,0,0,0-7.2,7.2v.7a5.4,5.4,0,0,0,1,3,7.3,7.3,0,0,0,6.2,3.6h.1a4.6,4.6,0,0,0,9,0h1.1a7.2,7.2,0,0,0,6.3,3.6,7.8,7.8,0,0,0,3.1-.7l2.1-.6a7.3,7.3,0,0,0,6.2,3.5,7.5,7.5,0,0,0,6.1-3.2,7.1,7.1,0,0,0,3.2.7,7.3,7.3,0,0,0,5.8-2.7,7.4,7.4,0,0,0,7.2,6.1,8.1,8.1,0,0,0,2.7-.5,17.3,17.3,0,0,0,12,4.8,17.6,17.6,0,0,0,14-6.9,9.1,9.1,0,0,0,3.7.8,8.7,8.7,0,0,0,5.5-1.9,7.5,7.5,0,0,0,6,3,6.8,6.8,0,0,0,3.5-.9,9.5,9.5,0,0,0,5.3,1.7,9.1,9.1,0,0,0,8.5-6l.4-.6h.6a8,8,0,0,0,3.8,1,7.2,7.2,0,0,0,5.7-2.8h.6a5.8,5.8,0,0,0,1.8.4l1.4-.2a4.5,4.5,0,0,0,2.3.7,4.1,4.1,0,0,0,4.1-4.1A4,4,0,0,0,309.1,133.9Z" style="fill:#b9e1ef;opacity:0.58"/><path d="M459,317.5h0a2,2,0,0,1-.4-.8h0a3,3,0,0,1-.4-.8h-.1a4.3,4.3,0,0,1-.4-.7.1.1,0,0,1-.1-.1l-.5-.6c0-.1-.1-.1-.1-.2l-.5-.5v-.2l-.5-.5-.2-.2-.5-.4-.3-.3-.4-.3-.4-.3-.4-.3-.5-.3h-.3l-.8-.5a14.6,14.6,0,0,0-14.2-11.5h-1.1a15.5,15.5,0,0,0-3.1.6,13.8,13.8,0,0,0-23.5-3.2,20.7,20.7,0,0,0-32.1,13.8,13.6,13.6,0,0,0-2.9-.3h-3.3l-.7.2-.6.2-.6.3-.6.2-.6.3-.6.3-.5.4-.6.4-.5.3-.5.5c-.1.1-.3.2-.4.4s-.3.3-.5.5-.3.2-.4.4l-.5.5-.3.4a4.3,4.3,0,0,1-.4.7l-.3.4c0,.1-.1.2-.1.3a9.3,9.3,0,0,0-5.8,8.5,9.2,9.2,0,0,0,9.1,9.2h.4a14,14,0,0,0,8.3,2.8,17.5,17.5,0,0,0,3.2-.4,13.7,13.7,0,0,0,12.9,9.2,13.5,13.5,0,0,0,10.6-5,13.5,13.5,0,0,0,10.6,5,13.6,13.6,0,0,0,10.9-5.5h1l1.6-.2a11.5,11.5,0,0,0,2.6.3,13.5,13.5,0,0,0,11.2-5.9,14.1,14.1,0,0,0,6.4,1.6,13.6,13.6,0,0,0,7-1.9,8.7,8.7,0,0,0,4.2,1,9.1,9.1,0,0,0,1.6-18.1Z" style="fill:#b9e1ef;opacity:0.58"/><path d="M120.7,263h0l-.4-.9h0c-.1-.3-.3-.5-.4-.8a.1.1,0,0,1-.1-.1,4.3,4.3,0,0,1-.4-.7.1.1,0,0,1-.1-.1l-.4-.6-.2-.2-.4-.5c-.1-.1-.2-.1-.2-.2l-.5-.5-.2-.2-.4-.4-.3-.3-.5-.3-.4-.3-.3-.2-.5-.3-.3-.2-.9-.5a14.6,14.6,0,0,0-14.1-11.5H98.5a17,17,0,0,0-3.1.6,13.8,13.8,0,0,0-23.5-3.2,20.3,20.3,0,0,0-11.7-3.6,20.7,20.7,0,0,0-20.4,17.4,13.6,13.6,0,0,0-2.9-.3H34.2l-.5.2-.8.2h-.5l-.7.3-.6.2-.6.3a1,1,0,0,0-.5.4l-.6.3a1,1,0,0,0-.5.4l-.5.3-.6.5-.4.4-.5.5-.4.4-.4.6-.3.4-.5.6-.2.4-.2.3a9.3,9.3,0,0,0-5.8,8.6,9.2,9.2,0,0,0,9.2,9.1h.4a13.7,13.7,0,0,0,8.2,2.8,16.5,16.5,0,0,0,3.2-.4,13.9,13.9,0,0,0,13,9.2,13.4,13.4,0,0,0,10.5-5,13.8,13.8,0,0,0,10.6,5,13.5,13.5,0,0,0,11-5.5h2.6l2.5.2a13.7,13.7,0,0,0,11.3-5.9,13.8,13.8,0,0,0,6.4,1.6,13.5,13.5,0,0,0,6.9-1.9,8.8,8.8,0,0,0,4.2,1.1,9.1,9.1,0,0,0,9.1-9.2A8.9,8.9,0,0,0,120.7,263Z" style="fill:#b9e1ef;opacity:0.58"/></g></g></g></svg>